<?xml version="1.0" encoding="utf-8"?>
<!-- Generator: Adobe Illustrator 28.3.0, SVG Export Plug-In . SVG Version: 6.00 Build 0)  -->
<svg version="1.1"
	 id="svg8" xmlns:sodipodi="http://sodipodi.sourceforge.net/DTD/sodipodi-0.dtd" xmlns:svg="http://www.w3.org/2000/svg" xmlns:cc="http://creativecommons.org/ns#" xmlns:rdf="http://www.w3.org/1999/02/22-rdf-syntax-ns#" xmlns:dc="http://purl.org/dc/elements/1.1/" xmlns:inkscape="http://www.inkscape.org/namespaces/inkscape" sodipodi:docname="equality.svg"
	 xmlns="http://www.w3.org/2000/svg" xmlns:xlink="http://www.w3.org/1999/xlink" x="0px" y="0px" viewBox="0 0 200 200"
	 style="enable-background:new 0 0 200 200;" xml:space="preserve">
<style type="text/css">
	.st0{fill:#222222;}
	.st1{fill:#9F3674;}
	.st2{fill:#FFFFFF;}
</style>
<defs>
	
		<inkscape:path-effect  bendpath1="m -199.08406,108.42369 h 7.0057" bendpath2="m -192.07836,108.42369 v 6.75242" bendpath3="m -199.08406,115.17611 h 7.0057" bendpath4="m -199.08406,108.42369 v 6.75242" effect="envelope" id="path-effect4658" is_visible="true" xx="true" yy="true">
		</inkscape:path-effect>
	
		<inkscape:path-effect  bendpath="m -192.00142,114.60623 c 2.12577,-0.53066 4.48261,0.85111 7.0057,0" bendpath-nodetypes="cc" effect="bend_path" id="path-effect4656" is_visible="true" prop_scale="1" scale_y_rel="false" vertical="false">
		</inkscape:path-effect>
	<inkscape:path-effect  effect="bounding_box" id="path-effect4654" is_visible="true" linkedpath="" visualbounds="false">
		</inkscape:path-effect>
</defs>
<sodipodi:namedview  bordercolor="#666666" borderopacity="1.0" fit-margin-bottom="0" fit-margin-left="0" fit-margin-right="0" fit-margin-top="0" id="base" inkscape:current-layer="layer1" inkscape:cx="56.450488" inkscape:cy="105.07799" inkscape:document-units="px" inkscape:object-nodes="false" inkscape:pageopacity="0.0" inkscape:pageshadow="2" inkscape:window-height="1016" inkscape:window-maximized="1" inkscape:window-width="1920" inkscape:window-x="0" inkscape:window-y="27" inkscape:zoom="0.70710678" pagecolor="#ffffff" showgrid="false" showguides="false" units="px">
	</sodipodi:namedview>
<g id="layer1" transform="translate(39.608708,-92.411388)" inkscape:groupmode="layer" inkscape:label="Layer 1">
	<g id="g4561" transform="matrix(2,0,0,2,-39.608708,92.411388)">
		<path id="rect4485" class="st0" d="M7.5,0h85c4.1,0,7.5,3.4,7.5,7.5v85c0,4.1-3.4,7.5-7.5,7.5h-85C3.4,100,0,96.6,0,92.5v-85
			C0,3.4,3.4,0,7.5,0z"/>
		<path id="rect4487" class="st1" d="M10,5h80c2.8,0,5,2.2,5,5v80c0,2.8-2.2,5-5,5H10c-2.8,0-5-2.2-5-5V10C5,7.2,7.2,5,10,5z"/>
		<path id="rect5205-3" inkscape:connector-curvature="0" class="st0" d="M2.8,70v15.8c0,5.8,4.7,10.5,10.5,10.5h73.5
			c5.8,0,10.5-4.7,10.5-10.5V70H2.8z"/>
	</g>
	<text transform="matrix(1 0 0 1 -1271.8119 -165.7253)" style="fill:#EEEEEE; font-family:'Montserrat-Light'; font-size:32px;">ORD</text>
</g>
<g>
	<g>
		<path class="st2" d="M70.7,167.3c1.9,0,3.4,0.4,4.5,1.3c1.1,0.9,1.7,2.3,1.7,4.4c0,2-0.5,3.5-1.4,4.5c-0.9,1-2.4,1.5-4.2,1.5
			c-1.7,0-3-0.4-4-1.2c-1-0.8-1.5-2.1-1.5-4l0.1-1.4h3.1v0.8c0,1,0.2,1.8,0.6,2.2s1,0.6,1.7,0.6c0.9,0,1.5-0.2,1.8-0.7
			c0.4-0.5,0.5-1.3,0.5-2.5c0-1.2-0.2-2-0.6-2.5c-0.4-0.5-1.1-0.8-2.2-0.8h-1v-2.2H70.7z M70.8,166.8c1,0,1.7-0.3,2-1s0.5-1.7,0.5-3
			c0-1.3-0.1-2.2-0.4-2.8s-0.8-0.8-1.8-0.8c-0.6,0-1,0.1-1.4,0.4c-0.3,0.2-0.5,0.6-0.7,1.1s-0.2,1.2-0.2,2.1v1.3h-3.1l-0.1-1.7
			c0-1.3,0.2-2.5,0.6-3.4c0.4-0.9,1-1.6,1.7-2c0.8-0.4,1.8-0.7,3-0.7c1.3,0,2.4,0.2,3.2,0.7c0.8,0.4,1.4,1.1,1.8,2.1
			c0.4,0.9,0.5,2.2,0.5,3.7c0,1.1-0.1,2.1-0.4,2.9c-0.3,0.8-0.7,1.5-1.2,2c-0.5,0.5-1.1,0.9-1.8,1.1c-0.7,0.2-1.5,0.4-2.3,0.4h-1.1
			v-2.2H70.8z"/>
		<path class="st2" d="M80.4,156.8h3.3v21.9h-3.3V156.8z M84.4,169.9c0.9,0,1.7-0.2,2.2-0.5c0.5-0.3,0.9-0.9,1.1-1.6
			s0.3-1.8,0.3-3.2c0-1.3-0.1-2.4-0.3-3.1s-0.5-1.2-1-1.5s-1.2-0.4-2.1-0.4H83v-2.9h1.7c1.1,0,2.1,0.1,2.9,0.4s1.5,0.7,2.1,1.3
			c0.6,0.6,1,1.4,1.3,2.4c0.3,1,0.4,2.3,0.4,3.8c0,2-0.3,3.6-0.8,4.8s-1.3,2.1-2.4,2.6s-2.3,0.8-3.8,0.8H83v-2.9H84.4z"/>
		<path class="st2" d="M93.4,178.7l2.8-21.9h2.9L97.5,172l-0.8,6.7H93.4z M95.9,173.7v-2.9h6.9v2.9H95.9z M97.9,159.6v-2.9h3.2v2.9
			H97.9z M102.1,178.7l-0.7-6.7l-1.6-15.2h2.9l2.7,21.9H102.1z"/>
		<path class="st2" d="M106.6,175.7h3v6.9h-3V175.7z M109.7,156.8h3c0,1,0,2.1,0,3.3c0,1.2,0,2.4-0.1,3.7c0,1.2-0.1,2.4-0.1,3.5
			c0,1.1-0.1,2.1-0.2,2.9c-0.1,1.4-0.3,2.7-0.6,3.8c-0.3,1.1-0.7,2-1.3,2.7h-2.6v-1c0.3-0.4,0.5-0.8,0.7-1.3
			c0.2-0.5,0.3-1.1,0.5-1.8c0.1-0.7,0.2-1.5,0.3-2.4c0.1-0.9,0.1-1.9,0.2-3c0-1.1,0.1-2.3,0.1-3.6c0-1.2,0-2.5,0.1-3.7
			C109.6,158.8,109.7,157.7,109.7,156.8z M108.6,175.7h11.1v3h-11.1V175.7z M110.9,156.8h6.8v3h-6.8V156.8z M116,156.8h3.3v21.9H116
			V156.8z M118.3,175.7h3v6.9h-3V175.7z"/>
		<path class="st2" d="M122.8,178.7l2.8-21.9h2.9l-1.6,15.3l-0.8,6.7H122.8z M125.3,173.7v-2.9h6.9v2.9H125.3z M127.3,159.6v-2.9
			h3.2v2.9H127.3z M131.5,178.7l-0.7-6.7l-1.6-15.2h2.9l2.7,21.9H131.5z"/>
	</g>
</g>
<g>
	<g>
		<g>
			<path class="st0" d="M176,25.2l-0.5-3.7l-3.7-0.6c-1.2-0.2-27.3-4-46.2,8.6c-8.2-4-16.8-6-25.6-6s-17.4,2-25.6,6
				c-18.9-12.6-45-8.8-46.2-8.6l-3.7,0.6L24,25.2c-0.2,1.4-4.1,33.4,12.8,51.1c-1.6,5.9-2.4,11.9-2.4,17.8
				c0,17.3,6.8,31.9,19.6,42.4c11.8,9.7,28.1,15,46,15c17.9,0,34.2-5.3,46-15c12.8-10.5,19.6-25.2,19.6-42.4c0-6-0.8-12-2.4-17.8
				C180.1,58.6,176.1,26.6,176,25.2z M115.5,60.1c3.4,0,6.2,2.8,6.2,6.2c0,3.4-2.8,6.2-6.2,6.2c-3.4,0-6.2-2.8-6.2-6.2
				C109.3,62.9,112.1,60.1,115.5,60.1z M84.5,60.1c3.4,0,6.1,2.8,6.1,6.2c0,3.4-2.7,6.2-6.1,6.2c-3.4,0-6.1-2.8-6.1-6.2
				C78.4,62.9,81.1,60.1,84.5,60.1z M100,130.6c-14.8,0-26.8-9.4-26.8-21s12-21,26.8-21c14.8,0,26.8,9.4,26.8,21
				S114.8,130.6,100,130.6z"/>
			<path class="st0" d="M92.5,105.9c-2,0-3.7,1.7-3.7,3.7c0,2,1.6,3.7,3.7,3.7c2,0,3.7-1.7,3.7-3.7
				C96.2,107.5,94.6,105.9,92.5,105.9z"/>
			<path class="st0" d="M107.4,105.8c-2,0-3.7,1.7-3.7,3.7s1.7,3.7,3.7,3.7c2,0,3.7-1.7,3.7-3.7S109.5,105.8,107.4,105.8z"/>
		</g>
	</g>
</g>
</svg>
