<?xml version="1.0" encoding="utf-8"?>
<!-- Generator: Adobe Illustrator 28.3.0, SVG Export Plug-In . SVG Version: 6.00 Build 0)  -->
<svg version="1.1"
	 id="svg8" xmlns:dc="http://purl.org/dc/elements/1.1/" xmlns:sodipodi="http://sodipodi.sourceforge.net/DTD/sodipodi-0.dtd" xmlns:svg="http://www.w3.org/2000/svg" xmlns:rdf="http://www.w3.org/1999/02/22-rdf-syntax-ns#" xmlns:cc="http://creativecommons.org/ns#" xmlns:inkscape="http://www.inkscape.org/namespaces/inkscape" sodipodi:docname="authority.svg"
	 xmlns="http://www.w3.org/2000/svg" xmlns:xlink="http://www.w3.org/1999/xlink" x="0px" y="0px" viewBox="0 0 200 200"
	 style="enable-background:new 0 0 200 200;" xml:space="preserve">
<style type="text/css">
	.st0{fill:#222222;}
	.st1{fill:#3F51B5;}
	.st2{fill:#FFFFFF;}
</style>
<defs>
	
		<inkscape:path-effect  bendpath1="m -199.08406,108.42369 h 7.0057" bendpath2="m -192.07836,108.42369 v 6.75242" bendpath3="m -199.08406,115.17611 h 7.0057" bendpath4="m -199.08406,108.42369 v 6.75242" effect="envelope" id="path-effect4658" is_visible="true" xx="true" yy="true">
		</inkscape:path-effect>
	
		<inkscape:path-effect  bendpath="m -192.00142,114.60623 c 2.12577,-0.53066 4.48261,0.85111 7.0057,0" bendpath-nodetypes="cc" effect="bend_path" id="path-effect4656" is_visible="true" prop_scale="1" scale_y_rel="false" vertical="false">
		</inkscape:path-effect>
	<inkscape:path-effect  effect="bounding_box" id="path-effect4654" is_visible="true" linkedpath="" visualbounds="false">
		</inkscape:path-effect>
</defs>
<sodipodi:namedview  bordercolor="#666666" borderopacity="1.0" fit-margin-bottom="0" fit-margin-left="0" fit-margin-right="0" fit-margin-top="0" id="base" inkscape:current-layer="layer1" inkscape:cx="616.35575" inkscape:cy="150.46772" inkscape:document-units="px" inkscape:object-nodes="true" inkscape:pageopacity="0.0" inkscape:pageshadow="2" inkscape:snap-page="true" inkscape:window-height="1016" inkscape:window-maximized="1" inkscape:window-width="1920" inkscape:window-x="0" inkscape:window-y="27" inkscape:zoom="0.5" pagecolor="#ffffff" showgrid="false" showguides="false" units="px">
	</sodipodi:namedview>
<g id="layer1" transform="translate(98.048812,-95.14345)" inkscape:groupmode="layer" inkscape:label="Layer 1">
	<g id="g5175" transform="matrix(2,0,0,2,-98.048812,95.143449)">
		<path id="rect5163" class="st0" d="M7.5,0h85c4.1,0,7.5,3.4,7.5,7.5v85c0,4.1-3.4,7.5-7.5,7.5h-85C3.4,100,0,96.6,0,92.5v-85
			C0,3.4,3.4,0,7.5,0z"/>
		<path id="rect5165" class="st1" d="M10,5h80c2.8,0,5,2.2,5,5v80c0,2.8-2.2,5-5,5H10c-2.8,0-5-2.2-5-5V10C5,7.2,7.2,5,10,5z"/>
		<path id="rect5205-3-6" inkscape:connector-curvature="0" class="st0" d="M2.8,70v15.8c0,5.8,4.7,10.5,10.5,10.5h73.5
			c5.8,0,10.5-4.7,10.5-10.5V70H2.8z"/>
	</g>
	<text transform="matrix(1 0 0 1 -1109.377 -173.3194)" style="fill:#EEEEEE; font-family:'Montserrat-Light'; font-size:32px;">ORD</text>
</g>
<g>
	<g>
		<path class="st2" d="M39.6,173.6h-4.6l-3.1-15.9h4l1.2,7.5l0.7,5h1.8V173.6z M40.4,157.7h4L42,172.6c-0.2,1.5-0.5,2.7-0.8,3.6
			s-0.7,1.7-1.2,2.3c-0.5,0.6-1.1,0.9-1.8,1.2c-0.7,0.2-1.5,0.3-2.5,0.3l-2-0.1v-3.2c0.9,0,1.7,0,2.2-0.1c0.6-0.1,1-0.3,1.4-0.6
			c0.3-0.3,0.6-0.9,0.8-1.7c0.2-0.8,0.4-2,0.6-3.5l0.7-5.5L40.4,157.7z"/>
		<path class="st2" d="M54.8,179.7l-2.6-8.1h-1.6v8.1h-3.9v-22h3.9v10.4h1.6l2.4-10.4h4l-3,12.1l3.3,9.9H54.8z"/>
		<path class="st2" d="M61.3,157.7h4v22h-4V157.7z M65.8,170.7c0.8,0,1.4-0.1,1.9-0.4c0.5-0.3,0.8-0.8,1-1.5c0.2-0.7,0.3-1.7,0.3-3
			c0-1.3-0.1-2.3-0.3-3c-0.2-0.7-0.5-1.1-0.9-1.3c-0.4-0.2-1-0.3-1.8-0.3h-1.6v-3.4h1.7c1.1,0,2.1,0.1,2.9,0.4
			c0.8,0.3,1.5,0.7,2.1,1.3c0.6,0.6,1,1.4,1.3,2.4c0.3,1,0.4,2.3,0.4,3.9c0,2.1-0.3,3.7-0.9,4.9s-1.4,2.1-2.4,2.6
			c-1.1,0.5-2.3,0.8-3.8,0.8h-1.5v-3.3H65.8z"/>
		<path class="st2" d="M74.6,179.7l2.6-22h3.4l-1.3,15.2l-0.7,6.8H74.6z M77.2,174.9v-3.3h7v3.3H77.2z M79.3,161v-3.3h3.2v3.3H79.3z
			 M83.2,179.7l-0.7-6.8l-1.4-15.2h3.4l2.7,22H83.2z"/>
		<path class="st2" d="M89.2,155.8c-0.6,0-1-0.2-1.4-0.5s-0.5-0.8-0.5-1.5c0-0.7,0.2-1.1,0.5-1.5s0.8-0.5,1.4-0.5
			c0.6,0,1.1,0.2,1.5,0.5c0.4,0.3,0.5,0.8,0.5,1.5c0,0.7-0.2,1.2-0.5,1.5C90.3,155.6,89.8,155.8,89.2,155.8z M89.7,157.7h4v22h-4
			V157.7z M94.3,155.8c-0.6,0-1.1-0.2-1.5-0.5c-0.4-0.3-0.5-0.8-0.5-1.5c0-0.7,0.2-1.1,0.5-1.5c0.4-0.3,0.9-0.5,1.5-0.5
			c0.6,0,1,0.2,1.4,0.5c0.4,0.3,0.5,0.8,0.5,1.5c0,0.7-0.2,1.2-0.5,1.5C95.3,155.6,94.9,155.8,94.3,155.8z"/>
		<path class="st2" d="M97.4,157.7h4v22h-4V157.7z M100.8,168.1h4.8v3.5h-4.8V168.1z M105.1,157.7h4v22h-4V157.7z"/>
		<path class="st2" d="M118.1,157.3c1.4,0,2.5,0.2,3.3,0.7c0.8,0.5,1.3,1.2,1.7,2.1c0.3,1,0.5,2.2,0.5,3.8l-0.2,5.4h-3.5v-5.4
			c0-0.8,0-1.5-0.1-2c-0.1-0.5-0.2-0.8-0.5-1c-0.2-0.2-0.6-0.3-1.1-0.3c-0.5,0-0.8,0.1-1.1,0.3c-0.2,0.2-0.4,0.5-0.5,1
			s-0.1,1.1-0.1,2v8.8c0,1,0.1,1.7,0.3,2.2c0.2,0.5,0.6,0.9,1.1,1.1c0.5,0.2,1.1,0.3,2,0.3h3.5v3.4l-3.5,0.2c-1.8,0-3.2-0.2-4.3-0.6
			c-1.1-0.4-1.9-1.2-2.3-2.2c-0.5-1-0.7-2.5-0.7-4.4V164c0-1.5,0.2-2.8,0.5-3.8s0.9-1.7,1.8-2.2S116.6,157.3,118.1,157.3z"/>
		<path class="st2" d="M125.2,157.7h11.4v3.6h-11.4V157.7z M128.9,157.7h4v22h-4V157.7z"/>
		<path class="st2" d="M138.8,157.7h3.8v22h-3.8V157.7z M143.5,167.8c1.1,0,1.9-0.3,2.2-0.9c0.3-0.6,0.5-1.5,0.5-2.8
			c0-0.8-0.1-1.5-0.2-1.9s-0.4-0.8-0.8-1c-0.4-0.2-0.9-0.3-1.6-0.3h-2.3v-3.2h2.4c2.3,0,4,0.5,5,1.4s1.5,2.5,1.5,4.7
			c0,2.1-0.6,3.6-1.7,4.6c-1.1,1-2.8,1.5-4.9,1.5h-2.6v-2.2H143.5z M143.6,176.4c1.1,0,1.9-0.2,2.3-0.6c0.4-0.4,0.6-1.1,0.6-2.3
			c0-1.2-0.2-1.9-0.6-2.3c-0.4-0.4-1.2-0.6-2.3-0.6h-2.7v-2.4h2.7c1.5,0,2.7,0.2,3.7,0.5c1,0.3,1.8,0.9,2.3,1.7
			c0.5,0.8,0.8,1.9,0.8,3.3c0,2.1-0.6,3.6-1.7,4.5c-1.1,0.9-2.8,1.3-5,1.3h-2.6v-3.2H143.6z"/>
		<path class="st2" d="M153.1,173.1v-8.7c0-1.5,0.2-2.8,0.6-3.8c0.4-1,1-1.8,1.9-2.4c0.9-0.6,2.1-0.8,3.5-0.8s2.7,0.3,3.5,0.8
			c0.9,0.6,1.5,1.3,1.9,2.4c0.4,1,0.6,2.3,0.6,3.8v8.7c0,1.5-0.2,2.8-0.6,3.8c-0.4,1-1,1.8-1.9,2.4c-0.9,0.6-2.1,0.8-3.5,0.8
			s-2.7-0.3-3.5-0.8c-0.9-0.5-1.5-1.3-1.9-2.4C153.3,175.8,153.1,174.6,153.1,173.1z M157.1,173.1c0,1.4,0.1,2.3,0.4,2.9
			c0.3,0.5,0.8,0.8,1.6,0.8c0.8,0,1.4-0.3,1.6-0.8c0.3-0.5,0.4-1.5,0.4-2.9v-8.7c0-1.4-0.1-2.3-0.4-2.9c-0.3-0.5-0.8-0.8-1.6-0.8
			c-0.8,0-1.3,0.3-1.6,0.8c-0.3,0.5-0.4,1.5-0.4,2.9V173.1z"/>
	</g>
</g>
<g transform="translate(0.000000,767.000000) scale(0.100000,-0.100000)">
	<path class="st0" d="M992.8,7492.5c-18.6-21.9-32.8-48.6-40.4-76.7c-4.2-15.4-4.9-21.6-5.6-51.8c-0.4-19,0.5-62.8,2.1-97.4
		c5.3-118.5,6.3-150.9,6.5-214.1c0-46.2-0.7-70-2.6-88.8c-9.3-85.5-34.4-165.7-75.3-241.1c-13.3-24.6-35.6-58.3-40-60.7
		c-1.9-0.9-10.7-1.8-19.7-1.9c-40.4-0.4-72.8,23.5-78.3,57.6c-4.7,30.5,12.1,56,46.3,69.5c11.9,4.7,16.3,5.6,29.3,5.8
		c8.6,0,15.4,0.7,15.4,1.6s-8.8,70.2-19.3,153.9c-17.2,135.8-20,154.8-25.6,173.9c-12.5,43.5-33.2,88.5-57.7,125.1
		c-41.2,61.6-97.8,113.7-159.5,146.7l-16.8,9v-489.8v-489.8h126h126l2.3-10.9c7.9-40,32.6-92.8,61.3-131.1
		c14.9-20,47.9-53.2,67.9-67.9c30.5-22.8,44.2-34,55.1-45.5l10.5-10.9l15.4,15.3c8.4,8.4,26.3,23.3,39.7,33.2
		c39.3,29,68.1,58.8,92,95.3c20.5,31.2,42.1,81.4,47.9,111.6l2.3,10.9h125.1h125.3v488.8c0,268.9-0.4,488.8-0.9,488.8
		c-2.1,0-23.5-11.6-36.9-19.7c-53.9-33.5-108.6-87.9-142.7-142c-13.9-21.9-31.4-57.4-40.5-81.4c-16-42.8-16.3-44.6-37-208
		c-10.7-83.5-19.3-153-19.3-154.4c0-2.3,2.1-2.6,11.9-2.1c27,1.6,62.7-17.7,74.2-40.2c6-11.6,6.7-34,1.6-47.6
		c-6.8-18.4-24.9-34.2-47.4-41.8c-12.6-4.2-40.7-5.3-47.2-1.8c-7.7,4-39,55.1-56.3,92.1c-38.6,81.3-57.7,159.9-62.5,254.5
		c-1.2,27.6,1.4,133.4,6.5,245.7c4.6,101.1,4,135-2.5,159.2c-5.6,21.1-14.2,41.2-24.4,56.9c-9.3,14.4-21.9,28.8-24.7,28.6
		C999.1,7499,995.8,7496,992.8,7492.5z M641.4,7241.7c34.6-46,58.4-91.6,70.6-134.8c3-10.7,9.5-53.9,20.4-135
		c8.6-65.5,15.8-120.6,15.8-122.3c0-2.1-2.3-4.2-6-5.8c-11.1-4.6-30.7-18.8-42.6-30.7c-13.2-13.2-23.5-29.5-28.1-43.5l-3-9.3h-20.7
		h-20.7v248.3c0,136.5,0.7,248.3,1.4,248.3C629.3,7256.9,635.1,7250.1,641.4,7241.7z M1372.9,7008.6v-248.3h-20h-20l-3.2,10
		c-8.1,25.6-36.5,56-66.9,71.4c-7.5,3.7-9.3,5.4-9.3,9c0,11.4,32.1,243.8,35.5,255.4c8.1,29.8,27.7,72,48.3,103.4
		c10.2,15.6,33.5,47.6,34.9,47.6C1372.6,7256.9,1372.9,7145.1,1372.9,7008.6z M1005.1,6809.9c14.9-48.4,47.2-118.1,71.6-154.6
		c4.6-7,8.6-13.5,9-14.4c0.4-1.6-82.3-52.7-85.1-52.7c-0.7,0-13.7,7.5-29,17c-15.3,9.3-34.2,20.7-42.1,25.4
		c-8.1,4.7-14.6,8.8-14.6,9c0,0.4,5.3,8.4,11.6,18.1c21.2,32.1,51.1,96.4,68.6,147.6c2.6,8.1,5.4,14.6,6,14.6
		S1003.3,6815.4,1005.1,6809.9z M671.1,6684.4c3.2-12.3,13.5-30.2,23.9-41.6c22.5-24.9,61.4-44.6,97.9-49.7
		c7.7-1.1,14.7-2.6,15.4-3.2c0.7-0.7-0.2-7.2-2.3-14.4c-5.3-19.1-8.6-40.2-9.8-60.2c-0.5-9.7-1.2-19.3-1.8-21.4l-0.7-4h-83.4h-83.4
		v100.9v100.9h21.1H669L671.1,6684.4z M1372.9,6590.9V6490h-83.4h-83.4v11.2c0,16.3-4.9,52.1-9.8,70.9c-2.3,9-3.9,17.2-3.3,18.1
		c0.7,0.9,3.3,1.6,6.1,1.6c13.9,0,43.7,8.8,64.1,19c32.5,16,54.4,39.1,64.9,67.9l4.9,13.2h19.8h20V6590.9z M905.9,6568.3
		c18.6-6.3,35.8-21.2,45.3-39c6.1-11.6,11.1-26.9,11.1-34.4v-4.9h-44.8h-44.8v14.6c0,21.2,6.5,60,11.2,67.7
		C885,6574.1,894.7,6572.3,905.9,6568.3z M1121.8,6558.4c4-16,7.2-40.5,7.2-56.5V6490h-44.6c-24.6,0-45.1,0.5-45.5,1.4
		c-0.4,0.7,0.4,6.1,1.6,12.1c5.1,25.1,22.3,48.4,43.9,59.8c11.2,5.8,30.4,11.2,32.6,9.3C1117.8,6571.9,1119.9,6565.6,1121.8,6558.4z
		 M962.3,6354.9c0-78.3,1.4-73.4-15.8-54.9c-27.9,29.3-47.2,64.1-57.2,102c-2.3,9.1-4.2,17.6-4.2,19c0,2.1,6.8,2.5,38.6,2.5h38.6
		V6354.9z M1116.7,6422.1c0-4.2-7.4-31.4-11.2-41.4c-6.5-17.2-17.7-39-27-52.1c-10.2-14.4-27.4-34-33.9-38.8l-5.1-3.5v68.4v68.6
		h38.6C1099.3,6423.3,1116.7,6422.8,1116.7,6422.1z"/>
</g>
</svg>
