<?xml version="1.0" encoding="utf-8"?>
<!-- Generator: Adobe Illustrator 28.3.0, SVG Export Plug-In . SVG Version: 6.00 Build 0)  -->
<svg version="1.1"
	 id="svg8" xmlns:rdf="http://www.w3.org/1999/02/22-rdf-syntax-ns#" xmlns:svg="http://www.w3.org/2000/svg" xmlns:sodipodi="http://sodipodi.sourceforge.net/DTD/sodipodi-0.dtd" xmlns:dc="http://purl.org/dc/elements/1.1/" xmlns:inkscape="http://www.inkscape.org/namespaces/inkscape" xmlns:cc="http://creativecommons.org/ns#" sodipodi:docname="authority.svg"
	 xmlns="http://www.w3.org/2000/svg" xmlns:xlink="http://www.w3.org/1999/xlink" x="0px" y="0px" viewBox="0 0 200 200"
	 style="enable-background:new 0 0 200 200;" xml:space="preserve">
<style type="text/css">
	.st0{fill:#222222;}
	.st1{fill:#3F51B5;}
	.st2{fill:#FFFFFF;}
</style>
<defs>
	
		<inkscape:path-effect  bendpath1="m -199.08406,108.42369 h 7.0057" bendpath2="m -192.07836,108.42369 v 6.75242" bendpath3="m -199.08406,115.17611 h 7.0057" bendpath4="m -199.08406,108.42369 v 6.75242" effect="envelope" id="path-effect4658" is_visible="true" xx="true" yy="true">
		</inkscape:path-effect>
	
		<inkscape:path-effect  bendpath="m -192.00142,114.60623 c 2.12577,-0.53066 4.48261,0.85111 7.0057,0" bendpath-nodetypes="cc" effect="bend_path" id="path-effect4656" is_visible="true" prop_scale="1" scale_y_rel="false" vertical="false">
		</inkscape:path-effect>
	<inkscape:path-effect  effect="bounding_box" id="path-effect4654" is_visible="true" linkedpath="" visualbounds="false">
		</inkscape:path-effect>
</defs>
<sodipodi:namedview  bordercolor="#666666" borderopacity="1.0" fit-margin-bottom="0" fit-margin-left="0" fit-margin-right="0" fit-margin-top="0" id="base" inkscape:current-layer="layer1" inkscape:cx="616.35575" inkscape:cy="150.46772" inkscape:document-units="px" inkscape:object-nodes="true" inkscape:pageopacity="0.0" inkscape:pageshadow="2" inkscape:snap-page="true" inkscape:window-height="1016" inkscape:window-maximized="1" inkscape:window-width="1920" inkscape:window-x="0" inkscape:window-y="27" inkscape:zoom="0.5" pagecolor="#ffffff" showgrid="false" showguides="false" units="px">
	</sodipodi:namedview>
<g id="layer1" transform="translate(98.048812,-95.14345)" inkscape:groupmode="layer" inkscape:label="Layer 1">
	<g id="g5175" transform="matrix(2,0,0,2,-98.048812,95.143449)">
		<path id="rect5163" class="st0" d="M7.5,0h85c4.1,0,7.5,3.4,7.5,7.5v85c0,4.1-3.4,7.5-7.5,7.5h-85C3.4,100,0,96.6,0,92.5v-85
			C0,3.4,3.4,0,7.5,0z"/>
		<path id="rect5165" class="st1" d="M10,5h80c2.8,0,5,2.2,5,5v80c0,2.8-2.2,5-5,5H10c-2.8,0-5-2.2-5-5V10C5,7.2,7.2,5,10,5z"/>
		<path id="rect5205-3-6" inkscape:connector-curvature="0" class="st0" d="M2.8,70v15.8c0,5.8,4.7,10.5,10.5,10.5h73.5
			c5.8,0,10.5-4.7,10.5-10.5V70H2.8z"/>
	</g>
	<text transform="matrix(1 0 0 1 -1109.377 -173.3194)" style="fill:#EEEEEE; font-family:'Montserrat-Light'; font-size:32px;">ORD</text>
</g>
<g>
	<g>
		<path class="st2" d="M39.6,173.6H35l-3.1-15.9h4l1.2,7.5l0.7,5h1.8C39.6,170.2,39.6,173.6,39.6,173.6z M40.4,157.7h4L42,172.6
			c-0.2,1.5-0.5,2.7-0.8,3.6s-0.7,1.7-1.2,2.3s-1.1,0.9-1.8,1.2c-0.7,0.2-1.5,0.3-2.5,0.3l-2-0.1v-3.2c0.9,0,1.7,0,2.2-0.1
			c0.6-0.1,1-0.3,1.4-0.6c0.3-0.3,0.6-0.9,0.8-1.7s0.4-2,0.6-3.5l0.7-5.5L40.4,157.7z"/>
		<path class="st2" d="M54.8,179.7l-2.6-8.1h-1.6v8.1h-3.9v-22h3.9v10.4h1.6l2.4-10.4h4l-3,12.1l3.3,9.9H54.8z"/>
		<path class="st2" d="M61.3,157.7h4v22h-4C61.3,179.7,61.3,157.7,61.3,157.7z M65.8,170.7c0.8,0,1.4-0.1,1.9-0.4
			c0.5-0.3,0.8-0.8,1-1.5s0.3-1.7,0.3-3s-0.1-2.3-0.3-3c-0.2-0.7-0.5-1.1-0.9-1.3s-1-0.3-1.8-0.3h-1.6v-3.4h1.7
			c1.1,0,2.1,0.1,2.9,0.4c0.8,0.3,1.5,0.7,2.1,1.3s1,1.4,1.3,2.4s0.4,2.3,0.4,3.9c0,2.1-0.3,3.7-0.9,4.9s-1.4,2.1-2.4,2.6
			c-1.1,0.5-2.3,0.8-3.8,0.8h-1.5v-3.3L65.8,170.7L65.8,170.7z"/>
		<path class="st2" d="M74.6,179.7l2.6-22h3.4l-1.3,15.2l-0.7,6.8H74.6z M77.2,174.9v-3.3h7v3.3H77.2z M79.3,161v-3.3h3.2v3.3H79.3z
			 M83.2,179.7l-0.7-6.8l-1.4-15.2h3.4l2.7,22H83.2z"/>
		<path class="st2" d="M89.2,155.8c-0.6,0-1-0.2-1.4-0.5s-0.5-0.8-0.5-1.5s0.2-1.1,0.5-1.5s0.8-0.5,1.4-0.5s1.1,0.2,1.5,0.5
			s0.5,0.8,0.5,1.5s-0.2,1.2-0.5,1.5C90.3,155.6,89.8,155.8,89.2,155.8z M89.7,157.7h4v22h-4V157.7z M94.3,155.8
			c-0.6,0-1.1-0.2-1.5-0.5s-0.5-0.8-0.5-1.5s0.2-1.1,0.5-1.5c0.4-0.3,0.9-0.5,1.5-0.5s1,0.2,1.4,0.5s0.5,0.8,0.5,1.5
			s-0.2,1.2-0.5,1.5C95.3,155.6,94.9,155.8,94.3,155.8z"/>
		<path class="st2" d="M97.4,157.7h4v22h-4V157.7z M100.8,168.1h4.8v3.5h-4.8V168.1z M105.1,157.7h4v22h-4V157.7z"/>
		<path class="st2" d="M118.1,157.3c1.4,0,2.5,0.2,3.3,0.7s1.3,1.2,1.7,2.1c0.3,1,0.5,2.2,0.5,3.8l-0.2,5.4h-3.5v-5.4
			c0-0.8,0-1.5-0.1-2s-0.2-0.8-0.5-1c-0.2-0.2-0.6-0.3-1.1-0.3s-0.8,0.1-1.1,0.3c-0.2,0.2-0.4,0.5-0.5,1s-0.1,1.1-0.1,2v8.8
			c0,1,0.1,1.7,0.3,2.2c0.2,0.5,0.6,0.9,1.1,1.1c0.5,0.2,1.1,0.3,2,0.3h3.5v3.4l-3.5,0.2c-1.8,0-3.2-0.2-4.3-0.6
			c-1.1-0.4-1.9-1.2-2.3-2.2c-0.5-1-0.7-2.5-0.7-4.4V164c0-1.5,0.2-2.8,0.5-3.8s0.9-1.7,1.8-2.2S116.6,157.3,118.1,157.3z"/>
		<path class="st2" d="M125.2,157.7h11.4v3.6h-11.4C125.2,161.3,125.2,157.7,125.2,157.7z M128.9,157.7h4v22h-4V157.7z"/>
		<path class="st2" d="M138.8,157.7h3.8v22h-3.8V157.7z M143.5,167.8c1.1,0,1.9-0.3,2.2-0.9c0.3-0.6,0.5-1.5,0.5-2.8
			c0-0.8-0.1-1.5-0.2-1.9s-0.4-0.8-0.8-1c-0.4-0.2-0.9-0.3-1.6-0.3h-2.3v-3.2h2.4c2.3,0,4,0.5,5,1.4s1.5,2.5,1.5,4.7
			c0,2.1-0.6,3.6-1.7,4.6c-1.1,1-2.8,1.5-4.9,1.5H141v-2.2L143.5,167.8L143.5,167.8z M143.6,176.4c1.1,0,1.9-0.2,2.3-0.6
			c0.4-0.4,0.6-1.1,0.6-2.3s-0.2-1.9-0.6-2.3c-0.4-0.4-1.2-0.6-2.3-0.6h-2.7v-2.4h2.7c1.5,0,2.7,0.2,3.7,0.5s1.8,0.9,2.3,1.7
			s0.8,1.9,0.8,3.3c0,2.1-0.6,3.6-1.7,4.5c-1.1,0.9-2.8,1.3-5,1.3h-2.6v-3.2h2.5V176.4z"/>
		<path class="st2" d="M153.1,173.1v-8.7c0-1.5,0.2-2.8,0.6-3.8c0.4-1,1-1.8,1.9-2.4c0.9-0.6,2.1-0.8,3.5-0.8s2.7,0.3,3.5,0.8
			c0.9,0.6,1.5,1.3,1.9,2.4c0.4,1,0.6,2.3,0.6,3.8v8.7c0,1.5-0.2,2.8-0.6,3.8c-0.4,1-1,1.8-1.9,2.4c-0.9,0.6-2.1,0.8-3.5,0.8
			s-2.7-0.3-3.5-0.8c-0.9-0.5-1.5-1.3-1.9-2.4C153.3,175.8,153.1,174.6,153.1,173.1z M157.1,173.1c0,1.4,0.1,2.3,0.4,2.9
			c0.3,0.5,0.8,0.8,1.6,0.8s1.4-0.3,1.6-0.8c0.3-0.5,0.4-1.5,0.4-2.9v-8.7c0-1.4-0.1-2.3-0.4-2.9c-0.3-0.5-0.8-0.8-1.6-0.8
			s-1.3,0.3-1.6,0.8s-0.4,1.5-0.4,2.9V173.1z"/>
	</g>
</g>
<g transform="translate(0.000000,767.000000) scale(0.100000,-0.100000)">
	<path class="st0" d="M1001.7,7509.7c-16.4-19.3-28.9-42.8-35.6-67.6c-3.7-13.6-4.3-19-4.9-45.6c-0.4-16.7,0.4-55.3,1.9-85.8
		c4.7-104.4,5.6-133,5.7-188.7c0-40.7-0.6-61.7-2.3-78.3c-8.2-75.3-30.3-146-66.4-212.5c-11.7-21.7-31.4-51.4-35.3-53.5
		c-1.7-0.8-9.4-1.6-17.4-1.7c-35.6-0.4-64.2,20.7-69,50.8c-4.1,26.9,10.7,49.4,40.8,61.2c10.5,4.1,14.4,4.9,25.8,5.1
		c7.6,0,13.6,0.6,13.6,1.4s-7.8,61.9-17,135.6c-15.2,119.7-17.6,136.4-22.6,153.2c-11,38.3-29.3,78-50.8,110.2
		C731.9,7348,682,7393.9,627.7,7423l-14.8,7.9v-431.6v-431.6h111h111l2-9.6c7-35.2,28.7-81.8,54-115.5
		c13.1-17.6,42.2-46.9,59.8-59.8c26.9-20.1,39-30,48.6-40.1l9.3-9.6l13.6,13.5c7.4,7.4,23.2,20.5,35,29.3c34.6,25.6,60,51.8,81.1,84
		c18.1,27.5,37.1,71.7,42.2,98.3l2,9.6h110.2h110.4v430.8c0,237-0.4,430.8-0.8,430.8c-1.9,0-20.7-10.2-32.5-17.4
		c-47.5-29.5-95.7-77.5-125.8-125.1c-12.2-19.3-27.7-50.6-35.7-71.7c-14.1-37.7-14.4-39.3-32.6-183.3c-9.4-73.6-17-134.8-17-136.1
		c0-2,1.9-2.3,10.5-1.9c23.8,1.4,55.3-15.6,65.4-35.4c5.3-10.2,5.9-30,1.4-41.9c-6-16.2-21.9-30.1-41.8-36.8
		c-11.1-3.7-35.9-4.7-41.6-1.6c-6.8,3.5-34.4,48.6-49.6,81.2c-34,71.6-50.8,140.9-55.1,224.3c-1.1,24.3,1.2,117.6,5.7,216.5
		c4.1,89.1,3.5,119-2.2,140.3c-4.9,18.6-12.5,36.3-21.5,50.1c-8.2,12.7-19.3,25.4-21.8,25.2
		C1007.2,7515.4,1004.3,7512.8,1001.7,7509.7z M692,7288.7c30.5-40.5,51.5-80.7,62.2-118.8c2.6-9.4,8.4-47.5,18-119
		c7.6-57.7,13.9-106.3,13.9-107.8c0-1.9-2-3.7-5.3-5.1c-9.8-4.1-27.1-16.6-37.5-27.1c-11.6-11.6-20.7-26-24.8-38.3l-2.6-8.2h-18.2
		h-18.2v218.8c0,120.3,0.6,218.8,1.2,218.8C681.3,7302.1,686.4,7296.1,692,7288.7z M1336.6,7083.3v-218.8H1319h-17.6l-2.8,8.8
		c-7.1,22.6-32.2,49.4-59,62.9c-6.6,3.3-8.2,4.8-8.2,7.9c0,10,28.3,214.8,31.3,225.1c7.1,26.3,24.4,63.5,42.6,91.1
		c9,13.7,29.5,41.9,30.8,41.9C1336.4,7302.1,1336.6,7203.5,1336.6,7083.3z M1012.5,6908.1c13.1-42.7,41.6-104.1,63.1-136.2
		c4.1-6.2,7.6-11.9,7.9-12.7c0.4-1.4-72.5-46.4-75-46.4c-0.6,0-12.1,6.6-25.6,15c-13.5,8.2-30.1,18.2-37.1,22.4
		c-7.1,4.1-12.9,7.8-12.9,7.9c0,0.4,4.7,7.4,10.2,16c18.7,28.3,45,85,60.5,130.1c2.3,7.1,4.8,12.9,5.3,12.9
		S1010.9,6913,1012.5,6908.1z M718.2,6797.6c2.8-10.8,11.9-26.6,21.1-36.7c19.8-21.9,54.1-39.3,86.3-43.8c6.8-1,13-2.3,13.6-2.8
		c0.6-0.6-0.2-6.3-2-12.7c-4.7-16.8-7.6-35.4-8.6-53.1c-0.4-8.5-1.1-17-1.6-18.9l-0.6-3.5h-73.5h-73.5v88.9v88.9h18.6h18.5
		L718.2,6797.6z M1336.6,6715.2v-88.9h-73.5h-73.5v9.9c0,14.4-4.3,45.9-8.6,62.5c-2,7.9-3.4,15.2-2.9,16c0.6,0.8,2.9,1.4,5.4,1.4
		c12.2,0,38.5,7.8,56.5,16.7c28.6,14.1,47.9,34.5,57.2,59.8l4.3,11.6h17.4h17.6L1336.6,6715.2L1336.6,6715.2z M925.1,6695.2
		c16.4-5.6,31.5-18.7,39.9-34.4c5.4-10.2,9.8-23.7,9.8-30.3v-4.3h-39.5h-39.5v12.9c0,18.7,5.7,52.9,9.9,59.7
		C906.7,6700.4,915.2,6698.8,925.1,6695.2z M1115.3,6686.5c3.5-14.1,6.3-35.7,6.3-49.8v-10.5h-39.3c-21.7,0-39.7,0.4-40.1,1.2
		c-0.4,0.6,0.4,5.4,1.4,10.7c4.5,22.1,19.7,42.7,38.7,52.7c9.9,5.1,26.8,9.9,28.7,8.2C1111.8,6698.4,1113.7,6692.9,1115.3,6686.5z
		 M974.8,6507.2c0-69,1.2-64.7-13.9-48.4c-24.6,25.8-41.6,56.5-50.4,89.9c-2,8-3.7,15.5-3.7,16.7c0,1.9,6,2.2,34,2.2h34
		C974.8,6567.6,974.8,6507.2,974.8,6507.2z M1110.8,6566.4c0-3.7-6.5-27.7-9.9-36.5c-5.7-15.2-15.6-34.4-23.8-45.9
		c-9-12.7-24.1-30-29.9-34.2l-4.5-3.1v60.3v60.5h34C1095.5,6567.5,1110.8,6567,1110.8,6566.4z"/>
</g>
</svg>
