<?xml version="1.0" encoding="utf-8"?>
<!-- Generator: Adobe Illustrator 28.3.0, SVG Export Plug-In . SVG Version: 6.00 Build 0)  -->
<svg version="1.1"
	 id="svg8" xmlns:inkscape="http://www.inkscape.org/namespaces/inkscape" xmlns:sodipodi="http://sodipodi.sourceforge.net/DTD/sodipodi-0.dtd" xmlns:cc="http://creativecommons.org/ns#" xmlns:dc="http://purl.org/dc/elements/1.1/" xmlns:svg="http://www.w3.org/2000/svg" xmlns:rdf="http://www.w3.org/1999/02/22-rdf-syntax-ns#" sodipodi:docname="authority.svg"
	 xmlns="http://www.w3.org/2000/svg" xmlns:xlink="http://www.w3.org/1999/xlink" x="0px" y="0px" viewBox="0 0 200 200"
	 style="enable-background:new 0 0 200 200;" xml:space="preserve">
<style type="text/css">
	.st0{fill:#222222;}
	.st1{fill:#3F51B5;}
	.st2{fill:#FFFFFF;}
</style>
<defs>
	
		<inkscape:path-effect  bendpath1="m -199.08406,108.42369 h 7.0057" bendpath2="m -192.07836,108.42369 v 6.75242" bendpath3="m -199.08406,115.17611 h 7.0057" bendpath4="m -199.08406,108.42369 v 6.75242" effect="envelope" id="path-effect4658" is_visible="true" xx="true" yy="true">
		</inkscape:path-effect>
	
		<inkscape:path-effect  bendpath="m -192.00142,114.60623 c 2.12577,-0.53066 4.48261,0.85111 7.0057,0" bendpath-nodetypes="cc" effect="bend_path" id="path-effect4656" is_visible="true" prop_scale="1" scale_y_rel="false" vertical="false">
		</inkscape:path-effect>
	<inkscape:path-effect  effect="bounding_box" id="path-effect4654" is_visible="true" linkedpath="" visualbounds="false">
		</inkscape:path-effect>
</defs>
<sodipodi:namedview  bordercolor="#666666" borderopacity="1.0" fit-margin-bottom="0" fit-margin-left="0" fit-margin-right="0" fit-margin-top="0" id="base" inkscape:current-layer="layer1" inkscape:cx="616.35575" inkscape:cy="150.46772" inkscape:document-units="px" inkscape:object-nodes="true" inkscape:pageopacity="0.0" inkscape:pageshadow="2" inkscape:snap-page="true" inkscape:window-height="1016" inkscape:window-maximized="1" inkscape:window-width="1920" inkscape:window-x="0" inkscape:window-y="27" inkscape:zoom="0.5" pagecolor="#ffffff" showgrid="false" showguides="false" units="px">
	</sodipodi:namedview>
<g id="layer1" transform="translate(98.048812,-95.14345)" inkscape:groupmode="layer" inkscape:label="Layer 1">
	<g id="g5175" transform="matrix(2,0,0,2,-98.048812,95.143449)">
		<path id="rect5163" class="st0" d="M7.5,0h85c4.1,0,7.5,3.4,7.5,7.5v85c0,4.1-3.4,7.5-7.5,7.5h-85C3.4,100,0,96.6,0,92.5v-85
			C0,3.4,3.4,0,7.5,0z"/>
		<path id="rect5165" class="st1" d="M10,5h80c2.8,0,5,2.2,5,5v80c0,2.8-2.2,5-5,5H10c-2.8,0-5-2.2-5-5V10C5,7.2,7.2,5,10,5z"/>
		<g transform="translate(0.000000,1500.000000) scale(0.100000,-0.100000)">
			<path class="st0" d="M484.6,14922.3c-21.7-27.4-21.7-27.5-25-33.9c-7.9-15.3-11.1-31-11.1-54.3c0-16.2,0.8-28.5,11.4-172.8
				c6.5-89.1,6.6-90.5,7.3-116.3c1.5-54.8-2.5-91.9-12.1-111l-1.9-3.8l15.2,0.1l15.2,0.2l1.5,2.7c3.8,6.8,7.5,19,9.9,33.2l1.7,10.2
				v124.5c0,68.6,0.3,124.9,0.5,125.3c1,1.5,3,2.1,4.6,1.4l1.5-0.7l0.1-125.9l0.2-125.9l1.5-8.1c3-15.7,6.6-27.6,10.7-34.4l1.7-2.9
				h15c8.3,0,15,0.1,15,0.3c0,0.2-0.9,2.1-1.9,4.2c-9,17.8-12.6,49.3-11.9,102.5c0.5,32.2,1.1,43.3,5.8,106
				c3.8,50.4,5.4,71.4,10.1,136.5c3,40.5,3.4,49,3,59c-0.7,24.4-6,43.3-16,58c-1.9,2.8-33.2,41.8-35.8,44.5
				C500.4,14942,497.4,14938.6,484.6,14922.3z"/>
			<path class="st0" d="M265,14781.3c-0.2-4-0.9-14.7-1.4-23.8c-5-84.3-3.5-173.2,4.7-272.4c3-37,3.4-44.7,3.4-84.9
				c0-38.4-0.4-49.7-2.8-76.5c-1.2-14.1-3.9-37.4-5.6-48.9c-0.7-4.8-1.2-8.8-1.1-8.9c0.1-0.1,5.6,0.8,12.2,2.1
				c36.6,7.1,67.6,10,116.1,10.9l24.8,0.5l2.5-3.4c4-5.4,12.6-13.1,17.8-15.8c6-3.2,13.8-5.2,20-5.2h4.9l-2.5,5.2
				c-2.3,4.8-2.5,5.6-2.5,11.2c0,5.2,0.3,6.5,1.8,9.7l1.8,3.7l-5,5c-8.1,8.1-11.7,14.7-12.7,23c-0.9,7.6,3.1,17,10.6,25l4.5,4.8
				l-1.9,3c-6,9.5-18.5,14.6-43,17.7c-6.8,0.9-20.3,5-26.8,8.2c-10.1,5-16.8,12.6-19.8,22.9c-1.3,4.7-1.4,15.3-0.1,20.4
				c2.8,10.9,11.2,20.3,23.5,26.5c7.6,3.8,11.1,4.5,22.5,4.5c11.7,0,16.7-1.1,24.6-5.4l4.1-2.2l-2.5,5.2
				c-7.7,15.8-11.3,37-10.5,63.1c0.5,18.4,2,31.1,6.8,57.1c4.9,26.6,6.5,41.6,6.4,62.1c0,19.9-1.9,33.1-6.8,47
				c-4.7,13.4-10.6,22.5-22.1,34c-16.2,16.2-33.3,25.1-62.4,32.4c-14.8,3.8-22.8,6.3-31.9,10.2c-19.8,8.4-36.5,20.9-49,36.8
				l-2.1,2.6L265,14781.3z M331.4,14697.1c15.1-7.7,29.9-19.5,37.8-30.1c10.5-13.9,14.9-29.1,15-52.1c0.1-18.2-2.4-31.3-9.9-51.9
				c-5.9-16.3-7.2-23.1-7.2-38.7c-0.1-15.6,2.2-29.8,7.4-47.2c1.5-4.8,2.7-9,2.7-9.1c0-0.2-0.9-0.1-1.9,0.3
				c-4.1,1.1-10.1,1.4-14.3,0.7c-6.6-1.2-11.1-3.6-16.4-9c-7-7-11.9-17-15.8-32.3c-1-4-1.9-7-1.9-6.6c0,0.5,0.7,8.3,1.7,17.4
				c8,80.5,8.2,152.3,0.6,220.3c-1.5,13.5-4.4,34.8-5.4,39.8c-0.2,1-0.1,1.8,0.3,1.8S327.7,14699,331.4,14697.1z M328,14378.7
				c2.3-6.3,9.3-19.2,13.2-24.4c6.7-9.1,12.3-12.5,29.8-18.5c4.8-1.7,14.6-4.6,21.8-6.6l13.1-3.6l-26.2-0.3
				c-28-0.3-28.6-0.4-46.4-4.7c-3.8-0.9-7-1.5-7.2-1.3c-0.6,0.6-0.4,63.3,0.3,62.9C326.5,14382.1,327.3,14380.5,328,14378.7z"/>
			<path class="st0" d="M733.5,14785.8c-3-4.2-11.1-12.5-16.5-17.1c-15.9-13.2-36.4-22.9-60.2-28.6c-31.6-7.5-49.7-16.5-66.2-32.9
				c-12.3-12.3-19.7-24.6-24.4-40.8c-4-13.9-4.8-20.7-4.8-43.1c0.1-22.5,0.7-29.3,6-57.7c6-33.1,7.4-47.1,6.9-69.6
				c-0.5-22.2-3.5-37.4-10.1-51.5l-2.9-6l5,2.5c7.9,4,15.8,5.5,26.2,5.1c14.2-0.6,23.6-4.6,33-14c12.7-12.7,15.6-29.9,7.7-44.9
				c-7.1-13.6-22.1-20.7-52.6-25.2c-12.5-1.9-20.7-4.6-27.3-9.4c-3.6-2.5-8.3-8.2-8.3-9.8c0-0.3,1.7-2.3,3.9-4.6
				c7.2-7.5,10.8-15.2,10.9-22.9c0-8.7-3.8-16.4-12.9-25.7l-4.6-4.7l1.7-3.7c3.2-7.1,2.9-13.2-0.9-21.3c-1.1-2.3-2-4.4-2-4.6
				s2.2-0.3,4.9-0.3c8.5,0,16.4,2.7,24.4,8.2c3.8,2.5,11.4,10.2,13.7,13.7l1.6,2.4l24.8-0.4c48.8-0.9,83.9-4.2,119.6-11.5
				c4.6-0.9,8.5-1.5,8.7-1.3c0.2,0.2-0.6,7.1-1.7,15.3c-6.4,45-8.5,79.4-7.9,128c0.4,32.6,0.6,37,3.8,75.8
				c8.1,98,9.5,184.7,4.3,277.4c-0.5,10.7-1.3,20.9-1.5,22.6l-0.5,3.2L733.5,14785.8z M676.9,14699.1c-1.6-7.1-6.4-47.6-8.1-68
				c-2.1-26.4-2.5-35.1-2.8-68.8c-0.5-44,0.7-75.5,4.6-117.1c0.7-8.1,1.5-16.4,1.6-18.5l0.3-3.7l-1,3.7
				c-6.6,23.8-15.1,36.2-27.6,40.9c-4.2,1.5-13.4,1.9-17.6,0.7c-1.3-0.3-2.4-0.7-2.4-0.7c-0.1,0,0.6,2.3,1.5,5.2
				c5.9,18.7,8.6,34.8,8.6,51.1c0,14.4-1.2,21.7-5.4,33.9c-8.7,25.2-10.3,31.5-11.7,46.4c-1.5,16,1.3,35.7,6.8,48.6
				c5.4,12.5,17.5,26.3,31.5,35.6c7.4,4.9,20.1,11.9,21.5,11.9C677,14700.6,677.1,14699.9,676.9,14699.1z M675,14319.1
				c-0.1-0.1-2.4,0.4-5.2,1.1c-2.8,0.7-8.9,2.1-13.8,3.2c-8.3,1.7-10,1.8-34.5,2.1l-25.8,0.4l8.7,2.3c12.9,3.4,33.5,10.3,39.9,13.3
				c3.2,1.5,7.1,4,8.9,5.5c6,5.4,12,14.7,18.3,28.5l3.4,7.2l0.2-31.7C675.2,14333.6,675.2,14319.2,675,14319.1z"/>
			<path class="st0" d="M409.1,14435c-5-2.3-8.3-8.1-8.5-14.5c-0.1-1.9-0.3-2.3-1.1-2c-8.9,3.8-17.7-0.1-20.2-9.1
				c-1.3-4.5-0.8-11.5,0.9-15.2c3.2-6.9,11.3-10.3,17.9-7.4l2.3,0.9l0.1-3.2c0.2-4.1,1.7-7.7,4.4-10.6c2.9-3,5.6-4.1,10.7-4.1
				c7.3,0,12.4,4.4,14.3,12.5c0.5,2.3,0.6,4.4,0.2,6.1c-0.3,1.4-0.6,2.8-0.6,3.1c0,0.3,2.4,0.5,5.4,0.5h5.4l1.3-2.5
				c0.7-1.4,2.5-3.8,4-5.2l2.7-2.6l52.2-0.1h52.2l2.9,2.8c1.5,1.5,3.4,3.9,4,5.2l1.1,2.3h5h5.1v-6c0-5.6,0.1-6.2,2-8.9
				c1.1-1.5,3.2-3.8,4.6-4.9c2.4-1.9,3-2.1,8.1-2.1c5,0,5.8,0.2,8.4,1.9c3.6,2.3,6.3,7.9,6.4,12.7c0.1,1.8,0.1,3.2,0.1,3.2
				c0,0,1-0.5,2.2-1.1c2.5-1.2,7-1.3,9.8-0.3c6.2,2.3,10,8.6,9.9,16.1c-0.1,12.7-8.9,20.2-19.3,16.4c-3.4-1.2-3.2-1.3-2.7,0.3
				c0.5,1.7-1.3,8.3-3.1,11.2c-0.8,1.2-2.8,2.8-4.8,3.8c-11.2,5.6-22.9-3-21.9-16l0.4-4.4h-5.2h-5.2l-0.7,2.5
				c-0.4,1.4-1.9,3.8-3.2,5.4l-2.4,2.8h-53.9h-53.9l-2-2.3c-1.1-1.3-2.5-3.7-3.2-5.4l-1.2-3.1h-5.3c-5.2,0-5.3,0.1-4.9,1.5
				c1.8,5.6-1.4,14.9-6.4,18.4C419.9,14436.4,413.3,14436.9,409.1,14435z"/>
			<path class="st0" d="M465.9,14374.8v-1.7h34.6c20.5,0,34.6,0.3,34.6,0.6c0,0.3,0.2,1.1,0.4,1.7c0.4,0.9-3,1.1-34.6,1.1h-35
				V14374.8z"/>
			<path class="st0" d="M461.9,14365.8c-1-1.4-1.4-3-1.4-5.8c0-4.1,0.7-6.1,3-7.9c1.3-1.1,4.3-1.2,37.2-1.2h35.8l1.6,1.6
				c3.2,3.2,3.7,9.9,0.9,13.5l-1.3,1.7h-37.2h-37.2L461.9,14365.8z"/>
			<path class="st0" d="M467.9,14344v-1.7h32.9h32.9v1.7v1.7h-32.9h-32.9V14344z"/>
			<path class="st0" d="M463.8,14335.2c-1.3-1.5-1.6-2.4-1.6-6c0-3.8,0.2-4.5,1.9-6.3l2-2.1h34.2c37.4,0,35.9-0.1,37.9,3.8
				c1.7,3.4,0.3,10.9-2.3,11.9c-0.6,0.2-16.7,0.4-35.8,0.4h-34.8L463.8,14335.2z"/>
			<path class="st0" d="M469.2,14313.8v-1.7h31.1c32.7,0,31.9-0.1,31.9,2.8c0,0.3-12.8,0.6-31.5,0.6h-31.5V14313.8z"/>
			<path class="st0" d="M467,14306c-1.9-1.1-3.2-4.3-3.2-8.1c0-3.1,0.3-3.7,2.6-6l2.6-2.6h31.7h31.7l1.9,1.9c3.6,3.7,4,10.4,0.6,14
				l-1.5,1.6h-32.6C479.9,14306.7,467.8,14306.4,467,14306z"/>
			<path class="st0" d="M471.3,14282.2v-2.3h29.5h29.5v2.3v2.3h-29.5h-29.5V14282.2z"/>
			<path class="st0" d="M468.3,14273.9c-2.8-3.2-2.6-10.3,0.4-13.3l1.6-1.6l29.7,0.1c19.3,0,30.2,0.3,31.1,0.7
				c3.5,1.9,4.9,8,2.8,12.4l-1.1,2.3h-30.3c-16.6,0-30.9,0.2-31.6,0.4C470,14275.1,469.1,14274.8,468.3,14273.9z"/>
			<path class="st0" d="M472.6,14251.7v-2h27.8h27.8l0.4,1.5c0.2,0.8,0.4,1.7,0.4,2c0,0.3-12.7,0.5-28.2,0.5h-28.2V14251.7z"/>
			<path class="st0" d="M456.2,14241.2c0.7-4.9,2.8-12.5,4.6-17c5.5-13.6,16-23.1,29.3-26.4c5.3-1.3,14.2-1.3,19.9-0.1
				c5.2,1.1,13.7,5.1,17.5,8.3c7.9,6.4,14.5,19.5,17.2,33.6l0.9,4.8h-45h-45L456.2,14241.2z"/>
			<path class="st0" d="M481.5,14191.9c-5.5-4-12.1-14.2-14-21.7l-0.4-1.7h33.6h33.6l-1.7,4.8c-2.7,7.4-7.5,14.3-13,18.7l-2.5,2
				l-4.3-1.1c-5.7-1.5-18.2-1.5-23.9,0c-2.3,0.6-4.4,1.1-4.4,1.1C484.3,14194,483,14193.1,481.5,14191.9z"/>
		</g>
		<path id="rect5205-3-6" inkscape:connector-curvature="0" class="st0" d="M2.8,70v15.8c0,5.8,4.7,10.5,10.5,10.5h73.5
			c5.8,0,10.5-4.7,10.5-10.5V70H2.8z"/>
	</g>
	<text transform="matrix(1 0 0 1 -1109.377 -173.3194)" style="fill:#EEEEEE; font-family:'Montserrat-Light'; font-size:32px;">ORD</text>
</g>
<g>
	<g>
		<path class="st2" d="M39.6,173.6H35l-3.1-15.9h4l1.2,7.5l0.7,5h1.8C39.6,170.2,39.6,173.6,39.6,173.6z M40.4,157.7h4L42,172.6
			c-0.2,1.5-0.5,2.7-0.8,3.6s-0.7,1.7-1.2,2.3s-1.1,0.9-1.8,1.2c-0.7,0.2-1.5,0.3-2.5,0.3l-2-0.1v-3.2c0.9,0,1.7,0,2.2-0.1
			c0.6-0.1,1-0.3,1.4-0.6c0.3-0.3,0.6-0.9,0.8-1.7s0.4-2,0.6-3.5l0.7-5.5L40.4,157.7z"/>
		<path class="st2" d="M54.8,179.7l-2.6-8.1h-1.6v8.1h-3.9v-22h3.9v10.4h1.6l2.4-10.4h4l-3,12.1l3.3,9.9H54.8z"/>
		<path class="st2" d="M61.3,157.7h4v22h-4C61.3,179.7,61.3,157.7,61.3,157.7z M65.8,170.7c0.8,0,1.4-0.1,1.9-0.4
			c0.5-0.3,0.8-0.8,1-1.5s0.3-1.7,0.3-3s-0.1-2.3-0.3-3c-0.2-0.7-0.5-1.1-0.9-1.3s-1-0.3-1.8-0.3h-1.6v-3.4h1.7
			c1.1,0,2.1,0.1,2.9,0.4c0.8,0.3,1.5,0.7,2.1,1.3s1,1.4,1.3,2.4s0.4,2.3,0.4,3.9c0,2.1-0.3,3.7-0.9,4.9s-1.4,2.1-2.4,2.6
			c-1.1,0.5-2.3,0.8-3.8,0.8h-1.5v-3.3L65.8,170.7L65.8,170.7z"/>
		<path class="st2" d="M74.6,179.7l2.6-22h3.4l-1.3,15.2l-0.7,6.8H74.6z M77.2,174.9v-3.3h7v3.3H77.2z M79.3,161v-3.3h3.2v3.3H79.3z
			 M83.2,179.7l-0.7-6.8l-1.4-15.2h3.4l2.7,22H83.2z"/>
		<path class="st2" d="M89.2,155.8c-0.6,0-1-0.2-1.4-0.5s-0.5-0.8-0.5-1.5s0.2-1.1,0.5-1.5s0.8-0.5,1.4-0.5s1.1,0.2,1.5,0.5
			s0.5,0.8,0.5,1.5s-0.2,1.2-0.5,1.5C90.3,155.6,89.8,155.8,89.2,155.8z M89.7,157.7h4v22h-4V157.7z M94.3,155.8
			c-0.6,0-1.1-0.2-1.5-0.5s-0.5-0.8-0.5-1.5s0.2-1.1,0.5-1.5c0.4-0.3,0.9-0.5,1.5-0.5s1,0.2,1.4,0.5s0.5,0.8,0.5,1.5
			s-0.2,1.2-0.5,1.5C95.3,155.6,94.9,155.8,94.3,155.8z"/>
		<path class="st2" d="M97.4,157.7h4v22h-4V157.7z M100.8,168.1h4.8v3.5h-4.8V168.1z M105.1,157.7h4v22h-4V157.7z"/>
		<path class="st2" d="M118.1,157.3c1.4,0,2.5,0.2,3.3,0.7s1.3,1.2,1.7,2.1c0.3,1,0.5,2.2,0.5,3.8l-0.2,5.4h-3.5v-5.4
			c0-0.8,0-1.5-0.1-2s-0.2-0.8-0.5-1c-0.2-0.2-0.6-0.3-1.1-0.3s-0.8,0.1-1.1,0.3c-0.2,0.2-0.4,0.5-0.5,1s-0.1,1.1-0.1,2v8.8
			c0,1,0.1,1.7,0.3,2.2c0.2,0.5,0.6,0.9,1.1,1.1c0.5,0.2,1.1,0.3,2,0.3h3.5v3.4l-3.5,0.2c-1.8,0-3.2-0.2-4.3-0.6
			c-1.1-0.4-1.9-1.2-2.3-2.2c-0.5-1-0.7-2.5-0.7-4.4V164c0-1.5,0.2-2.8,0.5-3.8s0.9-1.7,1.8-2.2S116.6,157.3,118.1,157.3z"/>
		<path class="st2" d="M125.2,157.7h11.4v3.6h-11.4C125.2,161.3,125.2,157.7,125.2,157.7z M128.9,157.7h4v22h-4V157.7z"/>
		<path class="st2" d="M138.8,157.7h3.8v22h-3.8V157.7z M143.5,167.8c1.1,0,1.9-0.3,2.2-0.9c0.3-0.6,0.5-1.5,0.5-2.8
			c0-0.8-0.1-1.5-0.2-1.9s-0.4-0.8-0.8-1c-0.4-0.2-0.9-0.3-1.6-0.3h-2.3v-3.2h2.4c2.3,0,4,0.5,5,1.4s1.5,2.5,1.5,4.7
			c0,2.1-0.6,3.6-1.7,4.6c-1.1,1-2.8,1.5-4.9,1.5H141v-2.2L143.5,167.8L143.5,167.8z M143.6,176.4c1.1,0,1.9-0.2,2.3-0.6
			c0.4-0.4,0.6-1.1,0.6-2.3s-0.2-1.9-0.6-2.3c-0.4-0.4-1.2-0.6-2.3-0.6h-2.7v-2.4h2.7c1.5,0,2.7,0.2,3.7,0.5s1.8,0.9,2.3,1.7
			s0.8,1.9,0.8,3.3c0,2.1-0.6,3.6-1.7,4.5c-1.1,0.9-2.8,1.3-5,1.3h-2.6v-3.2h2.5V176.4z"/>
		<path class="st2" d="M153.1,173.1v-8.7c0-1.5,0.2-2.8,0.6-3.8c0.4-1,1-1.8,1.9-2.4c0.9-0.6,2.1-0.8,3.5-0.8s2.7,0.3,3.5,0.8
			c0.9,0.6,1.5,1.3,1.9,2.4c0.4,1,0.6,2.3,0.6,3.8v8.7c0,1.5-0.2,2.8-0.6,3.8c-0.4,1-1,1.8-1.9,2.4c-0.9,0.6-2.1,0.8-3.5,0.8
			s-2.7-0.3-3.5-0.8c-0.9-0.5-1.5-1.3-1.9-2.4C153.3,175.8,153.1,174.6,153.1,173.1z M157.1,173.1c0,1.4,0.1,2.3,0.4,2.9
			c0.3,0.5,0.8,0.8,1.6,0.8s1.4-0.3,1.6-0.8c0.3-0.5,0.4-1.5,0.4-2.9v-8.7c0-1.4-0.1-2.3-0.4-2.9c-0.3-0.5-0.8-0.8-1.6-0.8
			s-1.3,0.3-1.6,0.8s-0.4,1.5-0.4,2.9V173.1z"/>
	</g>
</g>
</svg>
