<?xml version="1.0" encoding="utf-8"?>
<!-- Generator: Adobe Illustrator 28.3.0, SVG Export Plug-In . SVG Version: 6.00 Build 0)  -->
<svg version="1.1"
	 id="svg8" xmlns:rdf="http://www.w3.org/1999/02/22-rdf-syntax-ns#" xmlns:sodipodi="http://sodipodi.sourceforge.net/DTD/sodipodi-0.dtd" xmlns:inkscape="http://www.inkscape.org/namespaces/inkscape" xmlns:svg="http://www.w3.org/2000/svg" xmlns:cc="http://creativecommons.org/ns#" xmlns:dc="http://purl.org/dc/elements/1.1/" inkscape:version="0.92.1 r15371"
	 xmlns="http://www.w3.org/2000/svg" xmlns:xlink="http://www.w3.org/1999/xlink" x="0px" y="0px" viewBox="0 0 200 200"
	 style="enable-background:new 0 0 200 200;" xml:space="preserve">
<style type="text/css">
	.st0{fill:#222222;}
	.st1{fill:#F8D300;}
	.st2{fill:#FFFFFF;}
</style>
<defs>
	
		<inkscape:path-effect  bendpath1="m -199.08406,108.42369 h 7.0057" bendpath2="m -192.07836,108.42369 v 6.75242" bendpath3="m -199.08406,115.17611 h 7.0057" bendpath4="m -199.08406,108.42369 v 6.75242" effect="envelope" id="path-effect4658" is_visible="true" xx="true" yy="true">
		</inkscape:path-effect>
	
		<inkscape:path-effect  bendpath="m -192.00142,114.60623 c 2.12577,-0.53066 4.48261,0.85111 7.0057,0" bendpath-nodetypes="cc" effect="bend_path" id="path-effect4656" is_visible="true" prop_scale="1" scale_y_rel="false" vertical="false">
		</inkscape:path-effect>
	<inkscape:path-effect  effect="bounding_box" id="path-effect4654" is_visible="true" linkedpath="" visualbounds="false">
		</inkscape:path-effect>
</defs>
<sodipodi:namedview  bordercolor="#666666" borderopacity="1.0" fit-margin-bottom="0" fit-margin-left="0" fit-margin-right="0" fit-margin-top="0" id="base" inkscape:current-layer="layer1" inkscape:cx="616.35575" inkscape:cy="150.46772" inkscape:document-units="px" inkscape:object-nodes="true" inkscape:pageopacity="0.0" inkscape:pageshadow="2" inkscape:snap-page="true" inkscape:window-height="1016" inkscape:window-maximized="1" inkscape:window-width="1920" inkscape:window-x="0" inkscape:window-y="27" inkscape:zoom="0.5" pagecolor="#ffffff" showgrid="false" showguides="false" units="px">
	</sodipodi:namedview>
<g id="layer1" transform="translate(98.048812,-95.14345)" inkscape:groupmode="layer" inkscape:label="Layer 1">
	<g id="g5146" transform="matrix(2,0,0,2,-98.048813,95.143449)">
		<path id="rect5134" class="st0" d="M7.5,0h85c4.1,0,7.5,3.4,7.5,7.5v85c0,4.1-3.4,7.5-7.5,7.5h-85C3.4,100,0,96.6,0,92.5v-85
			C0,3.4,3.4,0,7.5,0z"/>
		<path id="rect5136" class="st1" d="M10,5h80c2.8,0,5,2.2,5,5v80c0,2.8-2.2,5-5,5H10c-2.8,0-5-2.2-5-5V10C5,7.2,7.2,5,10,5z"/>
		
			<path id="path4587" inkscape:connector-curvature="0" sodipodi:nodetypes="cccccscsccsccccccccsccccccssccsccsccccccccccscccscccccccccccscsscsscccccsscsssccscccccccscccsccssscccccccccscccccccccccccccccsccccccsccccccccccccccccccccc" class="st0" d="
			M40.9,81.2c-0.8-0.2-2.5-0.7-2.9-0.9c-0.2-0.1-0.7-0.3-1.1-0.4c-1.9-0.6-3.4-1.7-4.4-3c-1.3-1.9-5.6-9.6-5.6-10.2
			c0-0.1,0.2-0.5,0.3-0.8c0.9-1.5,1.3-3,1-4.1c-0.1-0.3-0.1-0.8-0.1-1c0-0.4-0.1-0.5-1.5-0.6c-0.6-0.1-1.3-0.2-1.4-0.3
			c-0.3-0.1-0.3-0.2-0.3-0.7c0-0.3,0.1-0.6,0.1-0.7c0.1-0.1,0.1-0.5,0-1.4c-0.3-4.1,0.1-5.9,1.8-7.7l0.4-0.4l-0.8-1.8
			c-0.7-1.7-2.5-6.2-2.8-7.2c-0.2-0.8-0.6-2.6-0.8-3.9c-0.1-0.7-0.2-1.4-0.3-1.6c-0.1-0.2-0.1-1-0.1-1.6c0-0.7,0-1.5-0.1-1.9
			L22.3,30l-0.4,0.5c-0.5,0.6-1.2,0.9-1.6,0.8c-0.2,0-0.5-0.3-0.8-0.5L19,30.3v-1c0-0.6-0.1-1-0.1-1c-0.2,0-0.1-1.4,0.1-1.7
			c0.3-0.4,0.2-0.8-0.1-1.2c-0.2-0.2-0.3-0.4-0.3-0.5c0-0.1-0.1-0.3-0.2-0.5c-0.2-0.3-0.2-0.4,0-1.1c0.1-0.4,0.2-1,0.2-1.2
			c0-0.5,0-0.5-0.6-0.7c-0.8-0.3-1.2-0.6-1.7-1.4c-0.3-0.6-0.4-0.7-0.4-2c0-1.2,0-1.5,0.4-2.4c0.5-1.2,1.2-2.3,2-2.9
			c0.5-0.4,0.6-0.5,0.8-1.2c0.2-1,0.8-1.7,1.7-2.2c0.5-0.3,0.9-0.4,2-0.5c0.7-0.1,1.5-0.1,1.6-0.2c0.2-0.1,0.3,0,0.5,0.3
			c0.3,0.4,1.1,0.8,1.5,0.8c0.2,0,0.2,0.1,0.2,0.5c-0.1,0.6,0.1,0.7,0.7,0.7c0.2,0,0.7,0.1,0.9,0.1c0.6,0.2,1.3,0,1.7-0.4
			c0.4-0.4,0.4-0.3,0.4,0.5c0,0.9-0.3,1.6-0.8,1.6c-0.4,0-1,0.4-1.3,0.8c-0.3,0.4-0.1,0.9,0.6,1.3c0.6,0.4,0.7,0.6,0.3,0.9
			C28.8,16,28.8,16,29,16.4c0.3,0.5,0.3,2.1,0,2.9c-0.3,0.9-1.4,1.8-2.9,2.5l-0.8,0.3L26,23c1.1,1.5,1.5,2.6,1.9,4.5
			c0.4,1.9,1.1,3.9,2.2,6c1.9,3.7,2.1,4.2,2.7,5.9c0.3,0.9,0.6,1.8,0.6,1.9c0,0.1,0.1,0.2,0.1,0.2c0.2,0,5.7-1,5.7-1
			c0,0,0.3-2.1,0.3-2.4c0-0.2-0.4-0.5-2.9-1.7c-4.2-2.1-5.7-3-5.8-3c0,0,0-0.1,0.1-0.2c0.1-0.1,0.5,0,1.1,0.1
			c0.6,0.1,1.7,0.4,2.6,0.6c0.9,0.2,2.5,0.6,3.7,0.9c1.2,0.3,2.2,0.5,2.3,0.5c0.2,0,1.8-1.2,1.8-1.4c0-0.2-3.3-6.7-3.4-6.8
			c-0.1,0-0.1-0.1-0.1-0.2c0-0.1-0.1-0.2-0.1-0.2c-0.1,0-0.1-0.1-0.1-0.2c0-0.2-0.2-0.7-0.4-0.8c0,0-0.1-0.2-0.1-0.3
			c0-0.2,0.3,0.1,3.1,3.2c0.8,0.9,1.9,2.1,2.5,2.7l1.1,1.2h1.1h1.1l0.3-1.6c0.2-0.9,0.6-2.9,0.9-4.4c0.3-1.6,0.6-2.8,0.6-2.9
			c0,0,0.1,1.4,0.3,5.1c0.1,1.4,0.2,2.9,0.2,3.4l0.1,0.9l1,0.4c0.5,0.2,1,0.4,1,0.4c0.1,0,5.6-5.1,6.2-5.8c0.5-0.5,0.7-0.6,0.6-0.2
			c0,0.1-0.1,0.3-0.2,0.3c-0.1,0-0.1,0.1-0.1,0.2c0,0.1,0,0.2-0.1,0.2c-0.1,0-0.1,0.1-0.2,0.2c-0.1,0.2-0.5,1-0.9,1.7
			c-0.1,0.2-0.9,1.5-1.7,3l-1.5,2.7l0.6,0.4l0.6,0.4l2.1-0.6c1.2-0.3,3.2-0.9,4.5-1.3c1.3-0.4,2.4-0.7,2.5-0.6c0,0-1.6,1.1-3.7,2.5
			c-2.7,1.7-3.7,2.5-3.7,2.6c0,0.1,0.2,0.6,0.4,1.1c0.3,0.8,0.3,1.1,0.4,2.8c0,1.8,0,1.8,0.4,2.7c0.4,0.8,0.4,1,0.5,2.1
			c0,1,0,1.3-0.2,1.7c-0.3,0.7-0.3,0.8,0.1,1.2c0.2,0.2,0.7,0.4,1.5,0.6c2.1,0.6,4.2,1.6,4.9,2.3c0.7,0.8,1.1,1.8,1.3,3.1
			c0.3,2.5,0.5,12.4,0.5,14.1L66,73l-0.7,1.4c-1,2-1.7,3-2.4,3.6c-0.3,0.3-1,1-1.5,1.6c-0.5,0.6-1.1,1.4-1.4,1.6
			c-1.1,1-3.3,2.7-4.5,3.4c-0.7,0.4-1.6,1-2.1,1.3c-1.5,0.9-2.7,1.5-4.6,2.1c-1,0.3-2.3-7.8-3-7.6c-1.3,0.5-3,0.8-3.8,0.8
			C41.7,81.3,41.3,81.3,40.9,81.2L40.9,81.2z M42.2,50.3c0.3-0.4,0.5-0.9,0.5-1.4c0-0.4-0.1-0.5-0.6-0.7c-0.3-0.1-0.9-0.5-1.2-0.9
			l-0.7-0.6l-1.4,0.4c-1.7,0.5-1.8,0.7-0.7,1.6c0.5,0.4,1,0.7,1.6,1c0.5,0.2,1.2,0.5,1.5,0.6C41.9,50.7,41.8,50.7,42.2,50.3
			L42.2,50.3z M40.1,44.1c0-0.1,0-0.5-0.2-0.8l-0.2-0.5l-3.1,0l-3.1,0l0.7,0.3c0.4,0.2,0.8,0.5,1.1,0.9c0.2,0.3,0.7,0.9,1,1.2
			l0.6,0.6l1.6-0.8C39.6,44.6,40.1,44.3,40.1,44.1L40.1,44.1z"/>
		<path id="rect5205" inkscape:connector-curvature="0" class="st0" d="M2.7,70v15.8c0,5.8,4.7,10.5,10.5,10.5h73.5
			c5.8,0,10.5-4.7,10.5-10.5V70H2.7z"/>
	</g>
	<text transform="matrix(1 0 0 1 -1109.377 -173.3194)" style="fill:#EEEEEE; font-family:'Montserrat-Light'; font-size:32px;">ORD</text>
</g>
<g>
	<g>
		<path class="st2" d="M11.2,158c1.4,0,2.4,0.3,3.2,0.8c0.8,0.5,1.3,1.3,1.7,2.2c0.3,1,0.5,2.1,0.5,3.5l-0.1,1.9h-3v-1.9
			c0-1.3-0.1-2.2-0.4-2.8c-0.3-0.6-0.9-0.8-1.8-0.8c-0.9,0-1.5,0.3-1.8,0.9c-0.3,0.6-0.4,1.6-0.4,3v9.4c0,0.9,0.1,1.6,0.2,2.2
			c0.1,0.6,0.4,1,0.7,1.2c0.3,0.3,0.8,0.4,1.4,0.4c0.9,0,1.5-0.3,1.8-0.8c0.3-0.5,0.5-1.3,0.5-2.3v-0.9h3l0.1,1.5
			c0,1.1-0.2,2-0.5,2.8c-0.3,0.8-0.9,1.4-1.7,1.8c-0.8,0.4-1.8,0.7-3.2,0.7c-1.4,0-2.5-0.3-3.3-0.8c-0.8-0.5-1.4-1.3-1.7-2.3
			c-0.3-1-0.5-2.3-0.5-3.7v-9.1c0-2.3,0.4-4.1,1.2-5.2S9.2,158,11.2,158z M12.7,168.6v2.8H7.6v-2.8H12.7z"/>
		<path class="st2" d="M20.4,158.4h3.3v21.9h-3.3V158.4z M24.9,168.6c1.3,0,2.1-0.3,2.4-1c0.4-0.6,0.6-1.6,0.6-3
			c0-0.9-0.1-1.6-0.2-2.1c-0.2-0.5-0.5-0.8-0.9-1.1c-0.4-0.2-1.1-0.3-1.9-0.3h-2.4v-2.8h2.4c2.2,0,3.9,0.5,4.8,1.5
			c1,1,1.5,2.5,1.5,4.7c0,2.1-0.6,3.6-1.7,4.6c-1.1,1-2.7,1.5-4.7,1.5h-2.6v-2H24.9z M25.1,177.5c1.2,0,2-0.2,2.5-0.6
			c0.4-0.4,0.7-1.2,0.7-2.5c0-1.2-0.2-2.1-0.7-2.5c-0.4-0.4-1.3-0.7-2.5-0.7h-2.8v-2.1h2.8c1.4,0,2.6,0.2,3.6,0.5
			c1,0.3,1.7,0.9,2.1,1.7s0.7,1.9,0.7,3.2c0,2.1-0.5,3.6-1.6,4.5c-1.1,0.9-2.7,1.3-4.8,1.3h-2.6v-2.8H25.1z"/>
		<path class="st2" d="M34.9,158.4h3.3v21.9h-3.3V158.4z M39,171.6c0.9,0,1.7-0.2,2.2-0.5c0.5-0.3,0.9-0.9,1.1-1.6s0.3-1.8,0.3-3.2
			c0-1.3-0.1-2.4-0.3-3.1s-0.5-1.2-1-1.5s-1.2-0.4-2.1-0.4h-1.7v-2.9h1.7c1.1,0,2.1,0.1,2.9,0.4s1.5,0.7,2.1,1.3
			c0.6,0.6,1,1.4,1.3,2.4c0.3,1,0.4,2.3,0.4,3.8c0,2-0.3,3.6-0.8,4.8s-1.3,2.1-2.4,2.6s-2.3,0.8-3.8,0.8h-1.4v-2.9H39z"/>
		<path class="st2" d="M48.7,173.7V165c0-1.5,0.2-2.8,0.6-3.9c0.4-1,1-1.8,1.8-2.3c0.8-0.5,2-0.8,3.3-0.8c1.4,0,2.5,0.3,3.4,0.8
			c0.8,0.5,1.5,1.3,1.8,2.3c0.4,1,0.5,2.3,0.5,3.9v8.8c0,1.5-0.2,2.8-0.5,3.9c-0.4,1-1,1.8-1.8,2.3c-0.8,0.5-2,0.8-3.4,0.8
			c-1.4,0-2.5-0.3-3.3-0.8c-0.8-0.5-1.5-1.3-1.8-2.3C48.9,176.6,48.7,175.3,48.7,173.7z M52.1,173.7c0,1.5,0.2,2.6,0.5,3.2
			s1,0.9,1.9,0.9c0.9,0,1.6-0.3,1.9-0.9c0.3-0.6,0.5-1.7,0.5-3.2V165c0-1.5-0.2-2.6-0.5-3.2c-0.3-0.6-1-0.9-1.9-0.9
			c-0.9,0-1.5,0.3-1.9,0.9s-0.5,1.6-0.5,3.2V173.7z"/>
		<path class="st2" d="M62.9,180.3l2.8-21.9h2.9l-1.6,15.3l-0.8,6.7H62.9z M65.4,175.3v-2.9h6.9v2.9H65.4z M67.4,161.3v-2.9h3.2v2.9
			H67.4z M71.7,180.3l-0.7-6.7l-1.6-15.2h2.9l2.7,21.9H71.7z"/>
		<path class="st2" d="M76.4,158.4h11v3h-11V158.4z M80.2,158.4h3.4v21.9h-3.4V158.4z"/>
		<path class="st2" d="M91.1,158.4h3.1c0,1,0,2,0,3.2s0,2.3,0,3.5c0,1.2,0,2.4,0,3.5c0,1.2,0,2.3,0,3.3c0,1,0,2-0.1,2.8
			c-0.1,1.5-0.2,2.6-0.5,3.4c-0.3,0.8-0.7,1.4-1.3,1.8c-0.6,0.4-1.5,0.5-2.5,0.5l-1.5-0.1v-2.9c0.7,0,1.3-0.1,1.7-0.3
			c0.4-0.2,0.6-0.6,0.8-1.1s0.2-1.3,0.3-2.3c0-0.7,0-1.4,0.1-2.2s0-1.7,0-2.6s0-1.9,0-2.8c0-1,0-1.9,0-2.9c0-0.9,0-1.8,0-2.7
			C91.1,159.8,91.1,159.1,91.1,158.4z M92.1,158.4h7.4v3h-7.4V158.4z M97.8,158.4h3.3v21.9h-3.3V158.4z"/>
		<path class="st2" d="M104.2,180.3l2.8-21.9h2.9l-1.6,15.3l-0.8,6.7H104.2z M106.7,175.3v-2.9h6.9v2.9H106.7z M108.6,161.3v-2.9
			h3.2v2.9H108.6z M112.9,180.3l-0.7-6.7l-1.6-15.2h2.9l2.7,21.9H112.9z"/>
		<path class="st2" d="M119.2,158.4h3.4v21.9h-3.4V158.4z M122.1,169h5.6v3h-5.6V169z M127.1,158.4h3.4v21.9h-3.4V158.4z"/>
		<path class="st2" d="M132.9,158.4h11v3h-11V158.4z M136.7,158.4h3.4v21.9h-3.4V158.4z"/>
		<path class="st2" d="M149.6,158.4v8.1l-0.5,10.1h0.3l1.3-5.5l3.3-12.7h4.5v21.9h-3.3v-8.5l0.5-9.8h-0.3l-1.1,5.3l-3.4,13h-4.5
			v-21.9H149.6z"/>
		<path class="st2" d="M166.9,169c1.9,0,3.4,0.4,4.5,1.3c1.1,0.9,1.7,2.3,1.7,4.4c0,2-0.5,3.5-1.4,4.5c-0.9,1-2.4,1.5-4.2,1.5
			c-1.7,0-3-0.4-4-1.2c-1-0.8-1.5-2.1-1.5-4l0.1-1.4h3.1v0.8c0,1,0.2,1.8,0.6,2.2c0.4,0.4,1,0.6,1.7,0.6c0.9,0,1.5-0.2,1.8-0.7
			c0.4-0.5,0.5-1.3,0.5-2.5c0-1.2-0.2-2-0.6-2.5c-0.4-0.5-1.1-0.8-2.2-0.8h-1V169H166.9z M167,168.5c1,0,1.7-0.3,2-1s0.5-1.7,0.5-3
			c0-1.3-0.1-2.2-0.4-2.8s-0.8-0.8-1.8-0.8c-0.6,0-1,0.1-1.4,0.4c-0.3,0.2-0.5,0.6-0.7,1.1c-0.1,0.5-0.2,1.2-0.2,2.1v1.3h-3.1
			l-0.1-1.7c0-1.3,0.2-2.5,0.6-3.4c0.4-0.9,1-1.6,1.7-2s1.8-0.7,3-0.7c1.3,0,2.4,0.2,3.2,0.7s1.4,1.1,1.8,2.1
			c0.4,0.9,0.5,2.2,0.5,3.7c0,1.1-0.1,2.1-0.4,2.9c-0.3,0.8-0.7,1.5-1.2,2c-0.5,0.5-1.1,0.9-1.8,1.1c-0.7,0.2-1.5,0.4-2.3,0.4H166
			v-2.2H167z"/>
		<path class="st2" d="M193.3,158.4l1.5,21.9h-3.3l-0.6-11l-0.3-8h-0.7l-1,8l-1.4,11.1H183l-1.4-11.3l-1-7.8H180l-0.3,8l-0.6,11
			h-3.3l1.5-21.9h5.9l1.1,9.2l1,9.9h0.1l0.9-9.9l1.2-9.2H193.3z"/>
	</g>
</g>
</svg>
