<?xml version="1.0" encoding="utf-8"?>
<!-- Generator: Adobe Illustrator 28.3.0, SVG Export Plug-In . SVG Version: 6.00 Build 0)  -->
<svg version="1.1"
	 id="svg8" xmlns:sodipodi="http://sodipodi.sourceforge.net/DTD/sodipodi-0.dtd" xmlns:svg="http://www.w3.org/2000/svg" xmlns:cc="http://creativecommons.org/ns#" xmlns:rdf="http://www.w3.org/1999/02/22-rdf-syntax-ns#" xmlns:dc="http://purl.org/dc/elements/1.1/" xmlns:inkscape="http://www.inkscape.org/namespaces/inkscape" sodipodi:docname="equality.svg"
	 xmlns="http://www.w3.org/2000/svg" xmlns:xlink="http://www.w3.org/1999/xlink" x="0px" y="0px" viewBox="0 0 200 200"
	 style="enable-background:new 0 0 200 200;" xml:space="preserve">
<style type="text/css">
	.st0{fill:#222222;}
	.st1{fill:#00B03E;}
	.st2{fill:#FFFFFF;}
</style>
<defs>
	
		<inkscape:path-effect  bendpath1="m -199.08406,108.42369 h 7.0057" bendpath2="m -192.07836,108.42369 v 6.75242" bendpath3="m -199.08406,115.17611 h 7.0057" bendpath4="m -199.08406,108.42369 v 6.75242" effect="envelope" id="path-effect4658" is_visible="true" xx="true" yy="true">
		</inkscape:path-effect>
	
		<inkscape:path-effect  bendpath="m -192.00142,114.60623 c 2.12577,-0.53066 4.48261,0.85111 7.0057,0" bendpath-nodetypes="cc" effect="bend_path" id="path-effect4656" is_visible="true" prop_scale="1" scale_y_rel="false" vertical="false">
		</inkscape:path-effect>
	<inkscape:path-effect  effect="bounding_box" id="path-effect4654" is_visible="true" linkedpath="" visualbounds="false">
		</inkscape:path-effect>
</defs>
<sodipodi:namedview  bordercolor="#666666" borderopacity="1.0" fit-margin-bottom="0" fit-margin-left="0" fit-margin-right="0" fit-margin-top="0" id="base" inkscape:current-layer="layer1" inkscape:cx="56.450488" inkscape:cy="105.07799" inkscape:document-units="px" inkscape:object-nodes="false" inkscape:pageopacity="0.0" inkscape:pageshadow="2" inkscape:window-height="1016" inkscape:window-maximized="1" inkscape:window-width="1920" inkscape:window-x="0" inkscape:window-y="27" inkscape:zoom="0.70710678" pagecolor="#ffffff" showgrid="false" showguides="false" units="px">
	</sodipodi:namedview>
<g id="layer1" transform="translate(39.608708,-92.411388)" inkscape:groupmode="layer" inkscape:label="Layer 1">
	<g id="g4561" transform="matrix(2,0,0,2,-39.608708,92.411388)">
		<path id="rect4485" class="st0" d="M7.5,0h85c4.1,0,7.5,3.4,7.5,7.5v85c0,4.1-3.4,7.5-7.5,7.5h-85C3.4,100,0,96.6,0,92.5v-85
			C0,3.4,3.4,0,7.5,0z"/>
		<path id="rect4487" class="st1" d="M10,5h80c2.8,0,5,2.2,5,5v80c0,2.8-2.2,5-5,5H10c-2.8,0-5-2.2-5-5V10C5,7.2,7.2,5,10,5z"/>
		<path id="rect5205-3" inkscape:connector-curvature="0" class="st0" d="M2.8,70v15.8c0,5.8,4.7,10.5,10.5,10.5h73.5
			c5.8,0,10.5-4.7,10.5-10.5V70H2.8z"/>
	</g>
	<text transform="matrix(1 0 0 1 -1271.8119 -165.7253)" style="fill:#EEEEEE; font-family:'Montserrat-Light'; font-size:32px;">ORD</text>
</g>
<g>
	<g>
		<path class="st2" d="M43.5,156.8h3.4v21.9h-3.4V156.8z M45.2,156.8h7.8v3h-7.8V156.8z M51.3,156.8h3.4v21.9h-3.4V156.8z"/>
		<path class="st2" d="M58.7,156.8H62v21.9h-3.3V156.8z M61.7,156.8h6.4v3h-6.4V156.8z M61.7,167.1H67v2.9h-5.3V167.1z M61.7,175.6
			h6.4v3.1h-6.4V175.6z"/>
		<path class="st2" d="M71.7,156.8H75v21.9h-3.3V156.8z M75.8,169.9c0.9,0,1.7-0.2,2.2-0.5c0.5-0.3,0.9-0.9,1.1-1.6s0.3-1.8,0.3-3.2
			c0-1.3-0.1-2.4-0.3-3.1s-0.5-1.2-1-1.5s-1.2-0.4-2.1-0.4h-1.7v-2.9H76c1.1,0,2.1,0.1,2.9,0.4s1.5,0.7,2.1,1.3
			c0.6,0.6,1,1.4,1.3,2.4c0.3,1,0.4,2.3,0.4,3.8c0,2-0.3,3.6-0.8,4.8s-1.3,2.1-2.4,2.6s-2.3,0.8-3.8,0.8h-1.4v-2.9H75.8z"/>
		<path class="st2" d="M85.8,156.8h3.3v21.9h-3.3V156.8z M88.8,156.8h6.4v3h-6.4V156.8z M88.8,167.1h5.3v2.9h-5.3V167.1z
			 M88.8,175.6h6.4v3.1h-6.4V175.6z"/>
		<path class="st2" d="M115.4,156.8l1.5,21.9h-3.3l-0.6-11l-0.3-8H112l-1,8l-1.4,11.1h-4.5l-1.4-11.3l-1-7.8h-0.7l-0.3,8l-0.6,11
			h-3.3l1.5-21.9h5.9l1.1,9.2l1,9.9h0.1l0.9-9.9l1.2-9.2H115.4z"/>
		<path class="st2" d="M119.9,172.1v-8.8c0-1.5,0.2-2.8,0.6-3.9c0.4-1,1-1.8,1.8-2.3c0.8-0.5,2-0.8,3.3-0.8c1.4,0,2.5,0.3,3.4,0.8
			c0.8,0.5,1.5,1.3,1.8,2.3c0.4,1,0.5,2.3,0.5,3.9v8.8c0,1.5-0.2,2.8-0.5,3.9s-1,1.8-1.8,2.3s-2,0.8-3.4,0.8c-1.4,0-2.5-0.3-3.3-0.8
			s-1.5-1.3-1.8-2.3C120.1,174.9,119.9,173.7,119.9,172.1z M123.3,172.1c0,1.5,0.2,2.6,0.5,3.2s1,0.9,1.9,0.9c0.9,0,1.6-0.3,1.9-0.9
			c0.3-0.6,0.5-1.7,0.5-3.2v-8.8c0-1.5-0.2-2.6-0.5-3.2c-0.3-0.6-1-0.9-1.9-0.9c-0.9,0-1.5,0.3-1.9,0.9s-0.5,1.6-0.5,3.2V172.1z"/>
		<path class="st2" d="M135.2,156.8h3.4v21.9h-3.4V156.8z M136.8,156.8h7.4v3h-7.4V156.8z"/>
		<path class="st2" d="M145.5,178.7l2.8-21.9h2.9l-1.6,15.3l-0.8,6.7H145.5z M147.9,173.7v-2.9h6.9v2.9H147.9z M149.9,159.6v-2.9
			h3.2v2.9H149.9z M154.2,178.7l-0.7-6.7l-1.6-15.2h2.9l2.7,21.9H154.2z"/>
	</g>
</g>
<g transform="translate(0.000000,195.000000) scale(0.100000,-0.100000)">
	<path class="st0" d="M1655.8,1579.1c-43-2.2-79.5-5-81.1-6.1c-1.1-1.7,10.5-124.7,25.9-274.2l28.7-270.9l72.3,2.8
		c39.2,1.7,80,3.9,89.9,5.5l17.7,2.8v106.5c0,58.5,1.7,181,3.9,272.6l3.3,166.6l-40.8-1.1
		C1752.9,1583.5,1699.4,1581.3,1655.8,1579.1z"/>
	<path class="st0" d="M449,1539.9c-62.4-7.7-124.7-29.8-169.4-59.6c-67.9-45.8-102.6-105.4-112.6-194.2l-3.9-34.2l115.3,3.9
		c63.5,2.2,117,5.5,119.2,6.6c2.8,1.7,4.4,12.1,4.4,23.7c0,25.9,17.7,53.5,44.1,69c27,16,99.3,16.6,125.3,1.1
		c24.8-15.4,37-40.3,33.1-69.5c-5.5-44.1-43-67.9-116.4-74.5l-43-4.4l3.3-28.1c1.7-15.4,3.3-51.9,3.3-81.7v-53l56.8-2.2
		c83.9-2.8,119.7-25.9,119.7-77.8c0-28.7-11.6-48.6-37-62.9c-75.6-41.9-172.7-7.7-182.1,64l-3.3,23.7l-39.2-3.3
		c-21.5-1.7-75.6-4.4-120.3-6.6l-81.7-3.3l3.3-23.2c9.4-65.7,28.1-109.3,65.1-150.6c62.4-69,189.8-104.3,330-90.5
		c145.1,14.3,241.1,64.6,280.3,146.8c16,33.7,21.5,109.8,11.6,155.1c-12.1,53.5-54.1,97.7-117.5,123.6l-32,13.2l28.7,15.4
		c63.5,34.8,90.5,68.4,97.7,123c14.9,109.8-44.7,197.5-159.5,234C608,1543.8,528.5,1549.8,449,1539.9z"/>
	<path class="st0" d="M1136,1338.5c-51.9-11-113.7-43-146.8-76.7c-53-53-79.5-124.2-79.5-212.4c0-64.6,11-111.5,35.9-159.5
		c25.9-49.7,46.3-72.8,85.5-98.8c55.7-37.5,95.5-48,179.3-47.5c61.2,0,77.8,2.2,114.2,14.3c78.9,26.5,140.2,77.8,169.9,142.9
		c18.2,40.3,16.6,43.6-23.2,43.6c-19.3,0-66.8-1.7-105.4-3.9l-71.2-3.3l-8.8-18.8c-9.9-21.5-44.7-40.3-73.4-40.3
		c-25.4,0-54.6,15.4-69,37c-16,24.3-28.1,73.4-19.3,78.4c3.3,2.2,85,7.2,181.5,11c96,3.3,182.6,7.7,191.5,8.8l17.1,2.8l-4.4,47.5
		c-5,59.6-16.6,100.4-40.8,143.5c-22.6,41.4-73.9,89.9-115.3,109.8C1292.2,1346.2,1208.8,1354.5,1136,1338.5z M1253,1199.5
		c16-9.4,34.2-39.2,39.7-65.1l3.9-17.1l-59-3.3c-32.6-2.2-73.4-3.9-91-3.9h-32l3.3,18.2c4.4,23.7,19.9,54.1,34.2,66.8
		C1174.6,1215.5,1222.1,1217.7,1253,1199.5z"/>
	<path class="st0" d="M1697.2,961.1c-44.7-2.2-82.8-5.5-84.4-7.2c-1.7-1.1-1.1-41.9,1.1-89.4l3.9-87.2l82.8,3.9
		c45.8,1.7,94.9,3.3,109.8,3.3h26.5v48.6c0,27-1.7,67.9-3.3,91l-3.9,42.5l-25.4-1.1C1790.4,965.5,1741.9,963.3,1697.2,961.1z"/>
</g>
</svg>
