<?xml version="1.0" encoding="utf-8"?>
<!-- Generator: Adobe Illustrator 28.3.0, SVG Export Plug-In . SVG Version: 6.00 Build 0)  -->
<svg version="1.1"
	 id="svg8" xmlns:dc="http://purl.org/dc/elements/1.1/" xmlns:sodipodi="http://sodipodi.sourceforge.net/DTD/sodipodi-0.dtd" xmlns:svg="http://www.w3.org/2000/svg" xmlns:rdf="http://www.w3.org/1999/02/22-rdf-syntax-ns#" xmlns:cc="http://creativecommons.org/ns#" xmlns:inkscape="http://www.inkscape.org/namespaces/inkscape" sodipodi:docname="authority.svg"
	 xmlns="http://www.w3.org/2000/svg" xmlns:xlink="http://www.w3.org/1999/xlink" x="0px" y="0px" viewBox="0 0 200 200"
	 style="enable-background:new 0 0 200 200;" xml:space="preserve">
<style type="text/css">
	.st0{fill:#222222;}
	.st1{fill:#CB4242;}
	.st2{fill:#FFFFFF;}
</style>
<defs>
	
		<inkscape:path-effect  bendpath1="m -199.08406,108.42369 h 7.0057" bendpath2="m -192.07836,108.42369 v 6.75242" bendpath3="m -199.08406,115.17611 h 7.0057" bendpath4="m -199.08406,108.42369 v 6.75242" effect="envelope" id="path-effect4658" is_visible="true" xx="true" yy="true">
		</inkscape:path-effect>
	
		<inkscape:path-effect  bendpath="m -192.00142,114.60623 c 2.12577,-0.53066 4.48261,0.85111 7.0057,0" bendpath-nodetypes="cc" effect="bend_path" id="path-effect4656" is_visible="true" prop_scale="1" scale_y_rel="false" vertical="false">
		</inkscape:path-effect>
	<inkscape:path-effect  effect="bounding_box" id="path-effect4654" is_visible="true" linkedpath="" visualbounds="false">
		</inkscape:path-effect>
</defs>
<sodipodi:namedview  bordercolor="#666666" borderopacity="1.0" fit-margin-bottom="0" fit-margin-left="0" fit-margin-right="0" fit-margin-top="0" id="base" inkscape:current-layer="layer1" inkscape:cx="616.35575" inkscape:cy="150.46772" inkscape:document-units="px" inkscape:object-nodes="true" inkscape:pageopacity="0.0" inkscape:pageshadow="2" inkscape:snap-page="true" inkscape:window-height="1016" inkscape:window-maximized="1" inkscape:window-width="1920" inkscape:window-x="0" inkscape:window-y="27" inkscape:zoom="0.5" pagecolor="#ffffff" showgrid="false" showguides="false" units="px">
	</sodipodi:namedview>
<g id="layer1" transform="translate(98.048812,-95.14345)" inkscape:groupmode="layer" inkscape:label="Layer 1">
	<g id="g5175" transform="matrix(2,0,0,2,-98.048812,95.143449)">
		<path id="rect5163" class="st0" d="M7.5,0h85c4.1,0,7.5,3.4,7.5,7.5v85c0,4.1-3.4,7.5-7.5,7.5h-85C3.4,100,0,96.6,0,92.5v-85
			C0,3.4,3.4,0,7.5,0z"/>
		<path id="rect5165" class="st1" d="M10,5h80c2.8,0,5,2.2,5,5v80c0,2.8-2.2,5-5,5H10c-2.8,0-5-2.2-5-5V10C5,7.2,7.2,5,10,5z"/>
		<g transform="translate(0.000000,1280.000000) scale(0.100000,-0.100000)">
			<path class="st0" d="M497,12725.7c-3-1.2-3.3-2.2-3.8-13.7l-0.4-10.9l2-1.6c1.9-1.7,2.5-3.2,1.3-3.9c-1.5-0.9-0.3-11.5,1.4-11.5
				c0.3,0,0.5-1.6,0.4-3.5c-0.2-3.2-0.4-3.6-1.5-3.8c-0.9-0.1-1.4,0.1-1.4,0.6c-0.1,0.4-0.7,1.6-1.5,2.6c-1.4,1.6-1.7,1.7-4.1,1.4
				c-1.4-0.2-3.2-0.8-3.9-1.2c-0.7-0.5-3-1.2-5-1.5c-2.3-0.4-6.4-2.1-11-4.5c-8.8-4.6-11.4-7.2-13.9-13.6c-1.5-4-1.6-4.9-1.4-10.9
				c0.3-6.3,0.6-7.2,4.2-16.9c2.1-5.6,4.2-10.3,4.5-10.4s0.6-0.6,0.6-0.9c0-1.6,2.2-6,3-6c0.5,0,0.7-0.4,0.4-0.9
				c-0.2-0.5,0.4-1.9,1.2-3.2c1.7-2.5,2-3.9,2.4-12c0.2-3.8,0-6.4-0.4-7.2c-0.9-1.7-7.8-6.9-13.9-10.6c-5.1-3-33.5-17.5-34.3-17.5
				c-1.1,0-0.3,2,3.8,9.4c6.1,10.8,8.1,16.1,8.1,21.7c0,8.2-4.7,14.6-12.2,16.8c-7.5,2.2-11.8,3.1-14.6,3.4c-2.7,0.2-3,0.1-3.3-1.1
				c-0.6-2.3-1.6-1.4-1.1,1.1c0.2,1.2,0.6,4,0.7,6c0.2,2,0.6,3.9,1.1,4.2c1,0.6,1.3,14.9,0.4,17.3c-1,2.3-2.8,2.7-5.7,1.5
				c-2.4-0.9-6.2-1.1-9.5-0.4c-2.8,0.7-5-0.8-5.5-3.6c-0.7-4.4-0.4-11.8,0.6-13.8c0.7-1.4,0.8-2.7,0.6-4.3c-0.4-2-0.1-2.9,1.2-4.9
				c1.9-3,2-3.5,0.3-3.9c-0.9-0.2-1.4,0.1-1.8,1.2c-0.7,1.9-0.9,1.9-8.1,0c-16.8-4.3-22.3-8.7-22.3-17.7c0-6.1,4.5-17.7,9.7-25
				c1.2-1.6,2.1-3,2.1-3.2c0-0.6-10.8-0.3-13.3,0.4c-5.6,1.4-9,3.2-10.2,5.2c-3,4.9-2.7,14.9,1,26.8c5.9,18.9,5.9,19.3,5.6,25.4
				c-0.4,7.9-1.6,9.9-8.5,14.6c-12.1,8.4-19.3,11.5-25.6,11.6c-2,0-4.5-0.4-5.7-0.9c-3.4-1.4-8.7-6.3-11.6-10.8
				c-3.2-5-7-8.9-10.3-10.6c-1.4-0.7-6-2.2-10.2-3.3c-10-2.7-11.6-3.5-15.2-6.9c-4.2-3.9-5.8-7.9-5.9-14.2s1-8.7,7.7-16.7
				c4.2-5.1,5-6.3,4.8-7.9c-0.3-3.2-2.4-3.9-8.8-2.9c-8.4,1.3-11.8-0.4-13.4-6.4c-1.4-5.3,0.9-12.9,4.6-15.1
				c4.1-2.5,4.5-2.4,5.7,1.4c0.6,1.9,1.2,3.4,1.5,3.4c0.2,0,2.9-0.4,5.9-1c6.5-1.2,10.9-0.9,14.5,0.9c1.4,0.7,2.5,1.1,2.5,0.8
				c0-0.3-0.8-2.4-1.8-4.5c-4.5-9.9-3.7-16.6,2.7-23c2-2,8.6-5.3,11.2-5.6c2.4-0.2,2.9,1.5,0.9,3.5c-0.8,0.9-1.5,2.8-2,5.4
				c-0.9,5.7,0.1,10,3.7,15.2c1.6,2.3,3.3,5.3,4,6.6c1.4,3.2,3.3,15.4,2.8,18.3c-0.2,1.2-2,5.7-4.1,9.9c-2.6,5.5-3.9,8.9-4.3,12
				c-0.7,4-0.6,4.8,1.1,10.8c1.7,6.3,1.8,6.5,3.6,6.7c4.3,0.4,9.7,2.2,15.3,5.1c4.1,2,6.1,2.8,6.4,2.4c0.2-0.4,0.4-3.5,0.5-7
				c0-5.5-0.2-7.1-2.2-13.4c-4.9-15.5-5.4-18.9-3.8-25.8c1.4-6.4,1.9-7.4,7.1-12.2c8.4-7.8,14.6-10.8,27.1-13.3
				c5.1-1.1,5.4-1.2,5.6-2.8c0.3-2.5-0.7-3.2-5-3.7c-5.2-0.5-13.1-3.1-16.8-5.5c-3.8-2.5-6.8-7.1-8.4-12.9
				c-1.7-6.1-1.6-9.4,0.2-15.3c1.1-3.6,2.2-5.6,4.3-8.1c3.6-4.1,4.8-4.2,9.8-0.6c7.1,5,13.2,6.4,22.6,5.4c5.8-0.6,13.2-2.2,14.9-3.1
				c0.5-0.2-1.6-0.4-4.6-0.4c-6.6,0-8.9-0.6-23.7-6.4c-13.6-5.3-16.4-5.8-23-3.7c-3.8,1.1-5.1,1.9-7.9,4.7c-1.9,1.9-3.6,3.3-3.8,3.3
				c-0.2,0-0.7-1.2-1.2-2.8c-1-3.5-0.6-9.2,0.9-12.4c1.5-3.2,5.6-7.2,8.9-8.9c5-2.5,18-2.7,22.8-0.1c1.3,0.7,4,2.5,6.1,4.1
				c3.3,2.6,7.7,5.3,8.7,5.3c0.2,0-0.5-1.5-1.5-3.3c-1.4-2.5-1.9-4.1-1.9-6.7c0-5.9,3-9.7,8.2-10.3c2.8-0.3,2.9-0.3,3.2,1.7
				c2,12.3,2.3,12.9,6.8,15.4c7.6,4.4,19,4.8,29.2,1.2c4.6-1.7,6.3-2,10.3-1.9l4.8,0.1l4.5-6.7c2.5-3.7,5.7-8.3,7.1-10.2
				c1.4-2,3.5-5.7,4.6-8.4c1.1-2.7,2.7-5.9,3.5-7.2l1.6-2.3l-0.4-11.3c-0.5-15.1-1-16.9-6.3-21.9c-4.3-4.2-8.1-6.4-10.8-6.5
				c-0.9-0.1-3.9,0.3-6.6,0.7c-2.7,0.4-6.1,0.9-7.4,0.9c-2.4,0.1-2.5,0-2.7-2.4c-0.2-2.8,2-10.5,3.7-12.9c1.5-2.2,5.3-4.3,10.7-6.1
				c2.4-0.7,4.6-1.6,4.9-1.9c0.9-0.9-4.1-3.6-8.3-4.6c-2.8-0.7-5.5-0.9-8.8-0.6c-4.5,0.3-5.1,0.6-10.5,4l-5.8,3.7l-1.4-1.6
				c-1.9-2.2-4-9-4.3-14.6c-0.3-3.8-0.1-5.5,1.1-8.9c1.7-5.2,3.8-7.6,9.6-11.3c2.9-1.8,4.5-3.1,4.3-3.7c-0.2-0.4-1.4-1.5-2.6-2.4
				c-10.3-7.1-26-6-37.7,2.6c-4.5,3.3-8.3,13.3-6.9,17.9c1.1,3.6,4.6,8.2,9.5,12.5c3.5,3,4.6,4.5,5.6,7.1c3.2,8.4,3.2,14.4,0.3,19.9
				c-1.7,3.3-20.9,22.9-24.5,25.1c-1,0.6-1.7,1.2-1.7,1.5s-4.2,4.8-9.2,10.1c-5.1,5.2-10,10.7-11,12.1c-1.6,2.4-12.3,16.9-13.2,18
				c-0.2,0.2-1.1,0.6-2,0.7c-1.4,0.2-2-0.1-3.5-2l-1.8-2.3l-1.7,1.5c-1.9,1.7-12.2,15.4-16.9,22.4c-1.7,2.5-4.6,7.7-6.6,11.5
				c-1.9,3.8-3.7,7.1-4,7.2c-0.2,0.1-2-0.7-4-1.9c-3.5-2-3.6-2-4.3-0.7c-0.4,0.7-7.1,11.2-14.9,23.4c-7.9,12.1-15.7,24.6-17.5,27.6
				c-5.9,10.2-21.9,40.5-22.9,43.7c-1.4,4.3-2.8,5.8-5.4,5.8c-1.2,0-3-0.4-4-0.8c-2.3-0.9-8.4-8.4-10.2-12.5
				c-0.7-1.5-1.8-3.9-2.4-5.3c-1.9-4.3-2.5-9.8-2.1-19.1c0.2-4.8,0.8-10.3,1.2-12.1c2.1-9,5.1-17.7,8.8-25c2.2-4.4,3.7-7.9,3.4-7.8
				c-0.3,0.1-5.6,4.6-11.6,10.1c-6.1,5.4-11.7,10.1-12.5,10.5c-0.7,0.3-2.4,0.4-3.6,0.2c-1.8-0.4-2.6-1-4.1-3.3
				c-4.3-6.8-5.3-14.9-3.1-26.8c1.7-9.5,6.8-20.4,13.8-29.6c1.9-2.6,3.5-4.8,3.3-4.9c-0.1-0.1-3.3,0.8-7.2,2.1
				c-6.1,2-7.8,2.3-13.3,2.4c-8.1,0.1-8.3-0.1-8.3-6.8c0.1-7.8,2.8-16.2,7.1-21.5c1.1-1.4,5.5-6.1,9.9-10.3c4.3-4.3,7.9-8,7.9-8.2
				c0-0.1-3,0.1-6.6,0.6c-7.4,0.9-21.8,0.7-24.5-0.4c-1.5-0.6-1.7-1-1.7-3.8c0-4,2.2-8.5,7.6-15.4c6-7.7,16.7-16.9,22.6-19.6
				c1.4-0.6,2.6-1.4,2.6-1.6s-4.9-0.7-10.8-1.1c-10.2-0.6-11.1-0.7-14.7-2.5c-2.1-1.1-4.6-2.6-5.7-3.5c-1.6-1.3-1.7-1.7-1.2-2.9
				c0.4-0.8,1.2-2.7,1.9-4.3c2-4.5,6.7-9.7,13.6-15.2c7.2-5.8,11.2-7.9,17.3-9.3c6.3-1.5,6.3-1.5,5.2-2.1c-0.5-0.3-3.1-1-5.7-1.5
				c-3.7-0.8-6.1-1.9-10.8-4.8c-5.6-3.5-12.3-8.9-13.4-10.8c-0.7-1.4,2.7-4.6,11-10.4c7.4-5.1,12.9-7.8,16.2-7.8
				c1.6,0,8.3-2.5,8.3-3c0-0.2-0.9-1.4-2.1-2.5c-1.8-1.7-2.5-2-4.2-1.8c-3.3,0.6-4.8-0.4-6.4-4.3c-0.9-2-2.5-4.3-3.7-5.3
				c-1.2-0.9-2.4-2.7-2.9-4c-0.7-2.2-0.6-2.4,0.9-3.6c1.2-1,1.6-1.9,1.6-3.6c0-1.2-0.2-2.3-0.4-2.3s-2.2,0.9-4.6,1.9
				c-4.9,2.2-5.3,2.2-5.8,0.9c-0.7-1.8,0.9-14,2.2-17.2c1.6-3.8,6.9-8.6,13.9-12.9c3-1.8,6.7-4.5,8.2-5.9c1.5-1.4,3.6-2.9,4.5-3.2
				c1.2-0.4,2.1-1.7,3.2-4c0.9-2,2.8-4.5,4.9-6.6c2-1.9,3.5-4,3.7-5c0.4-2,2-3.7,3.5-3.7c1.2,0,1.4-0.4,13.8-29.7
				c6.6-15.6,16.7-39.1,27.5-64.2l2.7-6.3l-1.2-2.2c-1.1-2-1.1-2.5-0.3-5c0.4-1.5,1.7-4.5,2.7-6.7c1.5-3.2,2.2-4.1,3.7-4.4
				c1.7-0.4,1.8-0.6,2.2-5c0.5-5.1,2-9.2,4-11c1-0.9,1.3-1.9,1.3-4.3c0-3,0.2-3.4,3-6.2c1.7-1.7,3.2-3.7,3.3-4.6
				c0.2-0.9,0.7-2.7,1.3-4.1c0.5-1.4,0.9-3.5,1-4.8c0-2.2-0.4-2.8-3.9-6.2c-3.1-3-4.2-4.7-5.4-7.7c-0.8-2.2-1.4-5-1.4-6.1
				c0.1-2.7,2.5-7.1,4.3-7.9c1.2-0.5,1.4-1.1,1.4-4c0-5.3,1.4-7.4,6.7-10c4.4-2.1,4.6-2.4,5.6-5.4c0.6-1.8,1.6-3.8,2.2-4.5
				c1.4-1.6,6.8-4.1,9.9-4.6c3.6-0.7,5.8-3.5,5.9-7.3c0-3.5,1.2-6.7,3.3-8.6c0.8-0.8,3.7-3.5,6.4-6.1c4.5-4.3,5.2-4.8,8.6-5.4
				c6.6-1.3,8.7-1.1,10.8,1.4c1.7,1.9,1.9,2.7,1.9,5.7c0,1.9-0.3,5.3-0.7,7.4c-0.6,3.4-0.6,4.6,0.4,8.2c1.1,4.2,1.1,4.3-0.1,6.8
				c-1.9,3.7-2.3,4.4-3.9,7.8c-0.8,1.7-1.5,3.3-1.7,3.5c-0.1,0.2,1.9,1.5,4.3,2.7s6.8,3.8,9.7,5.6c2.9,1.9,6.8,4.2,8.8,5.2
				c2.8,1.4,3.9,2.4,4.6,4c0.5,1.1,1.2,2.3,1.7,2.6c1.3,0.8,6.9,2.7,8.1,2.7c0.6,0,1.8,0.7,2.8,1.5c1.2,1,2.9,1.5,5.2,1.8
				c1.9,0.2,5.6,1.2,8.3,2.2l4.8,1.9l20.9,0.2c24.7,0.2,26.1,0.4,29.4,2.7c5.3,3.7,5.2,8.5-0.2,16.7c-1.7,2.5-3,4.9-2.8,5.1
				c0.1,0.2,1.9,0.6,3.8,0.7c2,0.2,5.2,1.1,7.1,1.9c3.1,1.4,3.9,2.1,6.3,5.9c1.5,2.4,3.2,5.8,3.7,7.5c0.9,3,0.9,3.2-0.2,3.8
				c-0.6,0.3-4.5,0.6-8.5,0.6c-6.4,0-7.6,0.2-9.7,1.4c-5.8,3.3-6.6,8.3-2.5,16.2c1.3,2.6,3.2,5.4,4.1,6.2c2.1,1.7,7.2,3.7,11.3,4.3
				c3.8,0.6,12.2-1.1,16.2-3.2c6-3.3,11-10.9,13.5-20.6c2.5-9.9,0.7-14.1-8.2-20.4c-12.2-8.7-15.6-12.6-17.1-19.8
				c-0.5-2.5-1.4-5-1.9-5.6c-0.6-0.6-3.1-2.3-5.7-3.8c-2.6-1.5-7.3-4.6-10.5-6.8c-16.3-11.2-25.5-17.2-27.6-17.8
				c-1.8-0.6-2.7-0.6-4.5,0.2c-3,1.2-3.9,3.3-3.1,7.2c1.1,5,0.5,6.6-2.3,7.4c-2.2,0.7-2.7,0.6-7.2-1.5c-2.7-1.3-5.6-3-6.4-4
				c-0.9-0.9-2.4-2.2-3.2-2.7c-3.4-2.4-6.5-12.3-5.8-18.7c0.4-3.9,1.7-6.6,4.5-9.9c1.2-1.2,2.1-2.5,2.1-2.8c0-0.3-1.3-1.4-2.9-2.5
				c-10.7-7.7-10.8-22.6-0.1-39.2c1.5-2.5,1.8-3.3,1.4-5.5c-0.7-4.3,0.8-8.1,3.2-8.1c1.1,0,10,8.9,13.5,13.5
				c2.5,3.4,3.4,3.9,3.4,2.1c0-0.6,1.1-3.3,2.4-6.1c1.9-3.9,3.2-5.6,6.6-8.7c5.3-4.7,7.3-5.8,11.9-6.2c6.1-0.7,11.6,0.6,16.2,3.8
				c2.2,1.5,4.8,2.8,5.6,3.1c1.5,0.4,1.8,0.1,3-2.4c3.2-6.3,14.3-16.1,20.3-17.8c3.1-0.8,12-0.8,14.2,0.1c0.9,0.4,2.2,0.8,2.7,0.9
				c2.5,0.4,6.7,1.8,8.6,2.9c1.9,1.2,2,1.2,3.5,0.1c0.8-0.6,3.7-3.8,6.4-7.1c5.5-6.5,9.5-10.3,11.7-10.8c0.9-0.2,2.4,0.2,4.1,1.2
				c3.2,1.9,11,10,14.1,14.6c1.2,1.7,2.5,3.2,2.9,3.2c0.4,0,2.5-0.9,4.8-1.9c4.8-2.2,10.7-3.7,14.7-3.7c3.8,0,10.2,2,14.2,4.6
				c4.3,2.7,11.4,9.8,13.8,13.8c2.3,3.8,2.1,3.8,9.4-0.4c4.8-2.8,5.1-2.8,10.9-3c8.6-0.3,10.2,0.3,16.9,6.3c6.6,6,7.9,7.7,9.7,13.1
				c0.7,2.2,1.7,3.9,2,3.8c0.4-0.1,1-1.3,1.5-2.6c0.4-1.3,1.2-2.9,1.7-3.4c0.5-0.6,0.9-1.3,0.9-1.7c0-1.4,9-10.1,10.4-10.1
				c1.5,0,1.5,0.3,1.4,6.1c-0.1,3,0.2,3.8,3.7,9.6c4.9,8.2,5.8,11.3,5.8,20c0.1,6.2-0.1,7.1-1.6,10c-0.9,1.7-3,4.7-4.8,6.6l-3.1,3.4
				l1.6,2.4c2,2.9,4.5,10.9,4.5,14.1c0,3.2-2.2,9.4-4.4,12.6c-1,1.5-3,3.7-4.5,4.8c-4.6,3.8-13.3,5.9-16.1,3.9
				c-1.1-0.8-1.1-0.9-0.1-2.8c0.6-1.1,1.2-2.1,1.6-2.3c0.8-0.5,0.8-5.6,0-7.2c-1.1-1.9-4.2-3.2-7.2-2.9c-3.5,0.4-6.1,1.8-15.5,8.6
				c-7.4,5.3-21.9,15-29.1,19.5c-3,1.9-3,1.9-3.5,5.9c-0.7,7.3-4.5,12.8-12.9,18.5c-9.8,6.8-13.5,12.2-12.8,19c0.7,7,8.3,20,14.1,24
				c4.4,3.1,15.1,3.7,22.6,1.3c3.9-1.3,7.4-4.9,9.8-9.9c1.6-3.4,1.9-4.6,1.6-7.7c-0.5-6.6-3.7-8.4-13.9-7.9c-8.6,0.4-9.2,0-8.8-5.9
				c0.3-3.5,0.6-4.6,2.2-6.6c4.2-5.3,10.8-8.2,18.8-8.2h4.7l-0.5-2.6c-0.2-1.5-1.3-5.2-2.4-8.3c-1.1-3.2-1.9-6.9-1.9-8.4
				c0-4.9,2.4-5.7,13.4-4.7c9.4,0.9,13.2,0.4,14.5-1.9c0.9-1.5,1.5-1.8,5.9-2.4c4.5-0.6,36.5-7.4,41.8-8.8c1.2-0.4,3.7-0.6,5.5-0.6
				c6.5,0,12.8-2.4,31.5-11.7c15.1-7.6,19.7-9.4,24.1-9.4c3.8,0,9.7,2.8,12.5,5.8l2,2.3l4.3-0.6c4.3-0.7,11-0.2,14.4,1.1
				c0.9,0.3,3.8,2.4,6.5,4.6c4,3.3,5.8,4.3,9.7,5.4c5.5,1.7,6.9,3.2,7.6,7.7c0.2,1.5,0.7,2.8,1,2.8c0.4,0,2.9,2.3,5.6,5.1
				c4.8,4.8,7.1,8.4,9.4,14.2c0.7,1.8,1.2,2.3,2.5,2.3c1.8,0,2.8,1.9,2.8,5.2c0,1.3,0.5,2.5,1.3,3.2c1.5,1.4,3,4.5,3,6.4
				c0,0.7-1,2.2-2.2,3.4c-1.7,1.7-2.2,2.7-2.2,4.4c0,1.2-0.4,2.8-0.9,3.6c-0.5,0.7-1.3,3.2-1.9,5.3c-1.7,6.6-4.5,11.6-9.8,17.2
				c-2.6,2.7-5.6,5.4-6.5,5.9c-0.9,0.4-1.9,1.1-2,1.2c-1,1.4-9.1,6.1-12.3,7.4c-4,1.5-4.2,1.9-1.2,3.4c1.6,0.9,1.8,1.2,1.5,3.3
				c-0.1,1.2-0.4,6.4-0.7,11.3l-0.4,9l-2.2,1.7c-2.4,1.9-1.9,1.9-16,1.6l-8.2-0.2l-1.9-1.9l-1.9-2l-0.2-11.3
				c-0.2-11-0.2-11.3,1.2-12.8l1.4-1.5l-3.3-0.7c-6.3-1.5-15.4-6.9-20.8-12.5c-4-4-8.6-12.6-9.7-18.2c-0.5-2.3-1.4-4.7-2.1-5.5
				c-1-1.1-1.3-2.2-1.3-4.5c0-2-0.3-3.4-0.9-3.8c-1.2-1-2-7.4-1.1-8.3c0.4-0.4,0.7-2.3,0.7-4.3c0-3.2,0.2-3.7,1.7-4.6
				c2.7-1.7,4.5-3.5,5.1-5.1c0.8-2-1.4-6.3-4.6-8.9l-2.5-2h-11.2c-8,0-11.5,0.2-12.1,0.7c-0.5,0.4-6.8,2.7-13.9,5
				c-15.9,5.3-25.2,9.5-27.9,12.8c-1.8,2.2-4.8,8.4-4.1,8.4c0.1,0,1.1-0.6,2.1-1.3c2.3-1.6,3.9-1.1,5,1.5c0.4,1.1,0.9,2.1,0.9,2.2
				c0.1,0.1,1.1-0.8,2-2c2.5-2.8,5.5-4.2,8.9-4.1c5.8,0.1,7.2,1.6,5.1,5.6c-1.1,2.1-3.5,11.2-3,11.6c0.1,0.1,2.5-0.8,5.3-2.1
				c4.8-2.2,5.6-2.4,10.7-2.4c4.1,0.1,6.2,0.3,7.9,1.2c3.9,1.9,10.3,10.3,10.3,13.6c0,0.6-0.9,1.1-2.3,1.3
				c-7.6,1.2-9.2,1.6-10.8,3.2c-2.8,2.7-3.2,4.8-2.1,11.2c1.4,7.9,1.3,20.4-0.2,24.7c-2.5,7.1-9.7,15.7-16,18.8
				c-4.3,2.2-9.5,3.8-12.4,3.8c-2,0-2,0.1-1.6,2c0.2,1.1,0.5,2.9,0.5,3.8c0.1,2.4-1.3,2.6-8,1.2c-4.7-1-5.5-1-10-0.1
				c-8,1.6-13.2,5.1-8.9,5.9c2.7,0.6,5.6,2.5,5.6,3.7c0,0.6-1.2,2.5-2.8,4.3c-1.5,1.7-3.5,4.6-4.3,6.4c-1.5,3.2-1.5,3.8-1.5,15.7
				c0.1,12.7,0.9,21.1,2.6,25.1c0.7,1.7,1.5,2.4,3.2,2.9c1.9,0.6,2.6,0.4,5.8-1.1c7.7-3.8,11.9-5.5,13.1-5.5c1.2,0,1.3-0.4,1.4-4.5
				c0.2-7.4,0.5-14.6,1.1-23.3c0.5-6.7,0.8-8.6,1.8-9.9c0.7-0.9,4.5-3.5,8.6-5.7c6.2-3.4,7.7-4,10.1-3.9c1.5,0.1,2.9,0.4,3.1,0.7
				c0.2,0.2,1.9,1.3,3.8,2.2c5.4,2.7,10.7,6.8,11.2,8.4c0.2,0.9,0.4,2.7,0.5,4.2c0.1,1.4,0.3,2.6,0.6,2.6c0.3,0,1.5-2.9,2.7-6.3
				c2.4-7.3,4.8-11.4,7.2-12.3c4-1.5,18.3-5.5,20-5.5c1.6,0,2.2,0.7,6.3,6.8c2.5,3.7,4.6,6.8,4.9,6.8c1.2,0,2.5,5.1,2.1,8.6
				l-0.4,3.5l3.2-4.6c6.3-9,6.5-9.2,9.8-9.2c1.6,0.1,6.2,0,10.2-0.1c4.9-0.1,7.6,0.1,8.2,0.6c0.5,0.4,3.1,5,5.8,10.2
				c5.6,10.7,5.6,11.1,1.9,16.5c-1,1.5-2.6,3.8-3.5,5.1c-3,4.3-0.9,3.2,5.5-3.1c3.5-3.4,7-6.6,7.8-6.9c1-0.6,4-0.6,11.8-0.1
				c10.1,0.6,10.4,0.7,11.8,2.3c1.3,1.4,1.4,2,1.1,4.8c-0.2,1.7-0.1,4.4,0.2,5.9c0.3,1.5,0.7,5.2,1,8.2l0.4,5.5l1.9-0.4
				c5.1-1.2,8.6-0.6,15.2,2.4c3.5,1.6,7.5,3.8,8.9,4.9l2.5,2l-0.2,9c-0.3,10.3-1,12.5-5,15.7c-2.1,1.7-2.3,2-1.3,2.4
				c0.6,0.2,2.3,0.5,3.8,0.5c1.5,0.1,4,0.6,5.6,1.2c1.6,0.6,4.5,1.7,6.5,2.3c4.7,1.5,11,4.6,11.8,5.9c1.1,1.7-0.7,4.8-5.5,9.5
				c-2.4,2.4-6.4,5.9-9,7.8c-2.5,1.9-5,3.9-5.5,4.5c-0.9,1.1-0.4,1.2,6.8,2c5,0.4,9.5,2.3,14.6,5.9c5.6,3.9,12.5,11,12.5,12.8
				c0,1-1.7,2.6-6.3,6.1c-8.2,6.2-12.8,8.3-19.2,9c-7.4,0.7-7.5,1.4-0.4,2.7c10.1,1.8,24.5,11.6,27.6,18.8c0.5,1.1,1.2,2,1.5,2
				c0.9,0,2.2,2.9,3.3,7.1c0.9,3.6,0.9,3.8-0.2,4.8c-3.7,3.1-14.8,5.4-26,5.5l-7.1,0.1l2.4,1.4c15.5,8.9,26.1,18.3,31.7,28.1
				c1.2,2.2,2.5,4,2.9,4.3c0.3,0.2,0.6,1.9,0.6,3.9v3.7l-4.1,0.7c-5,0.9-6.5,1-19.1,0.3l-9.9-0.5l6.9,7.1
				c6.1,6.3,10.8,12.1,10.8,13.3c0,0.2,0.6,1.1,1.2,1.7c1.1,1.2,5.1,14.1,6,19.2c0.3,1.9,0.1,2.6-0.7,3.3c-1.9,1.3-8.7,0.9-19.2-1.1
				c-5.3-1-10.1-1.9-10.6-1.9s0.9,2.1,3.2,4.8c3,3.5,5.2,7.1,8.4,13.5c8.5,17.3,9.4,23.3,5.9,37.4c-1.2,4.9-1.9,6.3-3.5,7.7
				c-3.2,2.9-4.9,2.2-13.3-5.3c-11.8-10.5-20.4-17.2-22.1-17.2c-0.2,0,1.7,3.8,4.3,8.5c12.9,23.5,14,27.3,14.1,47l0.1,11.2l-2.6,5.3
				c-3,6-4.8,7.9-11.6,12c-5.7,3.4-5.3,3.6-8.5-4.3c-4.2-10.3-9.4-20.6-18.6-36.7c-11.9-21-29.5-47.6-35.8-54.3l-4.6-4.8l-2.1,2
				c-3.2,3-3.7,2.4-10.7-11.6c-3.9-7.8-10.7-17.7-15.9-23.2c-2.7-2.8-5.1-5-5.4-5c-0.3,0-1.1,1-1.8,2.2c-1.3,2.2-2.8,2.7-5.2,1.8
				c-0.6-0.2-3.8-3.8-7.2-7.9c-18.5-22.1-27.1-31.8-39.7-44.2c-14.7-14.6-16.8-17.2-18-23.5c-0.8-4.6-0.1-6.6,4.6-13.6
				c2.1-3,4.2-6.1,4.6-6.8c0.5-0.7,2.2-3.3,3.9-5.8c3.9-5.8,4.8-8.1,4.8-12.1c0-4.2-2.4-8.5-6.6-12.3c-3.5-3-6-4.5-10.7-5.8
				c-5.9-1.7-15.7-1.1-20.5,1.5c-2.9,1.5-8.6,5.9-8.6,6.6c-0.1,0.9,2.9,3.3,4.1,3.3c1.4,0,6.1,4.7,7.8,7.9c2.2,4,2.6,7.1,1.7,13.3
				c-1.2,8.2-3.3,14.2-5.3,14.9c-2,0.8-3.7-0.4-5.1-3.7c-1.8-4-3.9-5.1-9.5-5.1c-3.7,0-11.9,1.4-15.2,2.6c-2.2,0.8-5.9,3.1-5.9,3.7
				c0,0.2,2,0.6,4.5,0.9c5.8,0.6,8.8,1.9,12.1,5.5c3.4,3.7,5,7.3,5.1,11c0,4.6-2.6,5.7-9.9,4.2c-6-1.2-16,3.3-20,9.1
				c-3,4.3-3.7,7.3-4,17.4l-0.4,9.4l5.1,10.3c5.2,10.7,8.7,16.4,12.7,21.3c1.2,1.5,2.7,3.3,3.2,3.9c0.8,1,1.5,1.1,5.7,0.7
				c4.4-0.4,5.3-0.2,10.3,1.6c5.1,1.9,6.3,2,12.7,2c12.7,0.1,20.9-3.7,22.3-10.3c2.2-10.5,2.1-10.3,5.4-9.4c1.9,0.4,2.8,1.2,4.4,3.6
				c1.8,2.7,2,3.4,2,7.9c0,4.9,0,4.9,1.6,4.9c0.9,0,2.5-0.8,3.8-1.9c1.1-1.1,3.8-2.7,5.9-3.8c3.3-1.7,4.6-2,9.5-2.2
				c11.5-0.6,18.9,3,22.8,10.7c2.6,5.2,3,11.8,0.9,14.9c-0.8,1.2-1.8,2.2-2.2,2.2c-0.4,0-1.7-1.4-2.8-3c-1.2-1.7-3.5-3.9-5.1-5
				c-2.9-2-3.2-2-8.4-1.8c-5,0.2-5.7,0.4-13.9,4.3c-8.7,4.2-11.5,5.1-20.3,7c-3,0.6-4.6,1.2-4.3,1.6c0.9,0.9,11.7,2,16.6,1.7
				c4.6-0.3,9.8-2.2,15.1-5.6c1.5-0.9,3.3-1.7,3.8-1.7c1.5,0,4.4,3.7,7.2,9.2c2.3,4.5,2.4,4.8,2.4,11.2c0,5.6-0.2,6.9-1.4,9.2
				c-2,3.8-5.3,7.2-10.6,11.2c-4.6,3.4-4.6,3.5-10.7,4.1c-3.3,0.3-6.1,0.8-6.1,1c0,0.2-0.7,1.4-1.5,2.6l-1.4,2.2l5.6,0.8
				c6.8,1,9.5,1.9,13.1,4.3c1.5,1,3,1.9,3.3,1.9c0.3,0,2.1,0.6,4,1.3c2.4,0.9,4.8,2.5,8.1,5.6c6.1,5.7,6.9,7.7,6.8,17.3
				c-0.1,7.3-0.4,9.3-4.5,25.1c-1.1,4.1-2.1,9.6-2.4,12.3l-0.4,4.8l1.5-0.4c0.8-0.2,2.7-1.1,4.3-1.9s3.7-1.5,4.6-1.8
				c1.1-0.2,3.7-1.3,6-2.3c2.2-1,4.8-1.8,5.6-1.8c3.6,0,4-0.7,5.7-10.2c0.6-3.3,0.9-6.6,0.6-8.2c-0.6-4.1-3-10.8-6.2-16.9
				c-5.5-10.9-5.3-14.7,1.9-28.8c5.3-10.5,5.4-11.2,3.4-19.6c-0.6-2.8-1.1-5.3-0.9-5.6c0.6-0.9,4.5-0.6,7.9,0.7
				c4.4,1.7,10.7,7.9,11.4,11.5c0.8,3.9,0.4,10.8-1,15.1c-0.7,2.2-1.2,4.1-1.1,4.2c0.1,0.1,1.5-0.1,3.2-0.6c1.8-0.4,5.4-0.6,9.7-0.4
				c5.9,0.3,6.8,0.2,7.1-0.7c0.7-2.2,3.1-6.4,3.8-6.7c1.1-0.5,5.3,3.7,7.2,7.2c0.9,1.7,1.9,4.4,2.3,6.2c0.9,4.3-0.3,7.6-3.9,10.5
				c-2.4,2-2.9,2.2-8.2,2.5c-5.6,0.4-6.6,0.6-8.6,2.3c-0.9,0.8-0.9,1.1-0.1,3.7c0.6,1.5,2,3.9,3.3,5.3c3.6,3.7,6.1,8.1,6.9,11.9
				c0.7,3,0.6,4.2-0.3,7.6c-1.2,4.6-4.4,9.8-7.2,11.9c-2.6,1.9-8.1,4.5-9.7,4.5c-2.6,0-12.8,4.3-16,6.8c-1.8,1.4-4.8,4.3-6.6,6.4
				c-4.8,5.6-11.5,12.1-13.8,13.2c-3.7,1.7-10.6,0.8-16.4-2.2c-2.7-1.4-17-11.3-19.1-13.2c-2.3-2.1-3.8-6.3-4.2-11.2
				c-0.3-4.2-0.1-5.1,2.8-14.1c6-18.2,7.5-27.9,5.1-33.1c-1.6-3.5-5.2-7.4-7.9-8.7c-1.8-0.9-3.7-1.1-8.8-1c-3.6,0.1-6.6,0.2-6.8,0.4
				c-0.1,0.2,1.7,4.3,4.2,9.2c6.7,13.6,7.3,19.3,2.8,25.7c-3.2,4.6-10.7,8.7-16.7,9.2c-2.1,0.1-3.9,0.5-3.9,0.8s-0.6,0.8-1.2,1.2
				c-1.6,0.9-6.2,0.1-6.2-1c0-0.5-0.4-0.9-1-0.9c-1.3,0-0.6,3,1.1,4.5c1.4,1.2,1.4,1.1,0.6,4.6c-0.5,1.9-0.4,3,0.1,4
				c0.5,0.9,0.7,3.8,0.6,8.8c-0.2,6.6-0.3,7.6-1.5,8.5s-1.4,1-3.2-0.1c-1.6-0.9-2.5-1.1-5.9-0.7c-2.2,0.2-4.5,0.7-5.1,0.9
				c-0.7,0.2-1.7-0.1-2.8-0.8c-1.7-1.2-1.7-1.4-1.9-8.1c-0.1-6.1,0-7.1,1.1-8.6c0.9-1.3,1.1-2,0.6-2.8c-0.7-1.2,0.4-5.9,1.3-5.9
				c0.3,0,0.9-0.8,1.2-1.8c0.5-1.4,0.4-2.1-0.2-3c-0.9-1.1-0.9-1.1-0.9,0.3c0,1.3-0.2,1.4-4.6,1.4c-4.6,0-11-1.6-17.3-4.3
				c-8.8-3.7-12.3-12.6-8.9-22.4c1.4-4.1,7.3-15.4,9.2-17.5c0.6-0.7,1.1-2.5,1.3-4.5c0.2-3,0.1-3.2-1.1-2.9
				c-0.7,0.2-6.4,3.2-12.7,6.6c-27.2,14.7-33.2,18.7-35.1,23.2c-1.2,3.1-0.5,13.5,1.2,15.9c0.7,0.9,1.3,2.4,1.4,3.2
				c0,0.8,0.2,1.5,0.5,1.5c1.3,0,9.1,16.8,11.3,24.5c5.8,20.3,1.2,30.8-16.9,38.4c-2.7,1.1-6.4,2.4-8.2,2.8c-1.9,0.4-4.7,1.4-6.4,2
				l-2.9,1.4l-1.7-1.3c-0.9-0.7-2-2-2.5-2.9c-0.6-1.1-1.3-1.7-2.2-1.7c-1.2,0-1.5,0.4-1.8,2.5c-0.2,2,0.1,3.2,1.5,5.9
				c1.9,3.6,2.2,6.4,1.2,10.2c-0.6,2.2-0.6,2.4,1.4,4.2l2,1.9l-0.1,11.2c-0.1,9.7-0.2,11.5-1.2,12.5c-1.2,1.4-3.8,1.5-5.5,0.2
				c-1.8-1.4-13.3-1.3-13.8,0C500.2,12726.3,498.9,12726.4,497,12725.7z M519.4,12584.4l5-0.5l8.8-6.3c9.3-6.7,16.7-11.3,24.3-15.4
				l4.6-2.4l-2.7-0.2c-1.5-0.1-5.7,0.4-9.4,1.1c-7.3,1.4-11,1.6-11.5,0.7c-1.4-2.2,7.3-11.4,13.6-14.6l3.7-1.9l-6.9-0.2
				c-5.5-0.1-6.9-0.4-7.2-1.1c-1.1-2.7,3.7-6.8,11.8-10.2l4.1-1.7l-1.6-1.1c-0.9-0.7-2.9-2.1-4.3-3.2c-1.4-1.1-2.9-2-3.2-2
				c-0.4,0-2.7-1-5.3-2.2c-5.8-2.8-12.3-4.4-19.8-5c-3.2-0.2-6.3-0.7-6.6-1c-0.4-0.4-0.8-1.4-0.7-2.3c0.1-3.5,5.6-5.6,14.6-5.6
				c2.7,0,3.9-0.2,4.2-0.9c0.2-0.4-1.7-3.5-4.3-6.8c-4.3-5.5-10.8-17.3-10.8-19.5c0-0.5-0.8-2.6-1.8-4.7c-2.8-5.8-6.6-17.9-8.1-25.2
				c-0.7-3.6-1.5-7.4-2-8.6c-0.7-2-0.8-1.9-3.1,6.6c-6.4,23.5-11.3,35.3-20.5,50.1l-4.6,7.6l3.7,0.4c6.5,0.7,11,3.6,11.8,7.5
				l0.4,1.9l-6.4,0.4c-3.5,0.2-8,1-10.1,1.7c-4.5,1.5-19.2,8.6-21.3,10.3c-1.8,1.5-1.8,1.5,5.8,6c5.5,3.2,9.9,7.7,8.7,8.9
				c-0.6,0.6-5.7,0.6-11.2,0l-4.3-0.5l4.8,2.5c3.4,1.9,6.1,4,9.2,7.2c5.8,6.1,5.6,6.7-1.2,6.6c-2.9,0-7.9-0.2-11-0.6
				c-3.8-0.4-5.6-0.4-5.5,0c0.1,0.4,4.4,3,9.5,5.9c11.3,6.5,23.2,14.5,25.4,17.1c0.3,0.4,1.9,0.9,3.4,1.1
				C496.2,12585,514.3,12584.9,519.4,12584.4z M396.4,12257c2.4-1.6,2.9-3.5,4.3-15.3c2-16.6,0.3-27.5-5.4-35
				c-1.3-1.7-1.4-2.7-0.9-6c0-0.3,1.2-0.5,2.5-0.5c3.2,0,3.5-0.7,1.4-2.7c-3.8-3.7-9.7-4.5-21.3-2.8c-3,0.4-5.6,0.6-5.8,0.4
				c-0.4-0.3,0.3-3.8,1.4-7.4c0.3-1-0.1-1.1-3-1.1c-4-0.1-8.4-1.5-13.2-4.4c-6.2-3.7-9.4-7-12.2-12.8l-2.7-5.3v-10.3
				c0-5.6,0.2-13.4,0.6-17.2l0.6-6.9l-1.8-1.8c-1.4-1.4-2.8-2-6.1-2.5c-7.6-1.2-7.7-1.3-7.7-2.6c0-2.9,1.7-5.3,5.3-7.5
				c5.1-3,7.7-3.8,13.6-3.7c4.5,0.1,7.8,0.7,13.5,2.9c0.9,0.4,1.1,0,1.1-2.9c0-1.9-0.2-3.6-0.6-4c-0.3-0.3-1.3-2.5-2.2-4.9
				c-1.5-4-1.5-4.3-0.6-5.1c0.6-0.4,1.5-0.8,2-0.8c2.4,0.1,8.7,1.8,11.2,3.1c1.5,0.7,2.9,1.1,2.9,0.8c0.1-0.4,0.6-1.1,1-1.7
				c0.7-1,1-0.9,3.5,0.5c4.3,2.5,5,2.2,5-1.7v-3.3l-4.2-1.9c-2.4-1.1-7.2-3-11-4.3c-3.7-1.4-8.2-3.1-9.9-3.8
				c-10.5-4.6-20.4-7.2-25.2-6.6c-3.2,0.4-8.6,2.6-11.6,4.8c-1.7,1.2-4.1,5.4-5.9,10.4c-1.4,3.9-5.3,6.9-8.7,6.9
				c-0.9-0.1-2.9-0.6-4.2-1.2c-1.7-0.8-3.8-1.2-6.8-1.2c-4.3,0-4.3,0-5.9,2.4c-1.2,1.8-1.6,3.3-1.9,7.2l-0.3,5l-2.3,1.2
				c-2.3,1.2-2.4,1.4-2.4,4.6v3.5l-4.6,4.6c-3.7,3.7-4.6,5-4.6,6.5c0,1.7-1,10-1.6,13.1c-0.2,0.9-0.9,1.5-2.5,2
				c-1.2,0.4-2.5,0.5-2.8,0.3c-0.2-0.2-0.7,0.2-0.9,0.8c-0.9,2.8-21,44.5-21.7,45.2c-0.4,0.4-0.6,0.8-0.4,1c0.2,0.2-2.2,5.6-5.3,12
				c-8.7,17.8-12.4,25.7-12.4,25.8c0,0.1,3.7,0,8.3-0.1c6.9-0.2,8.6-0.1,10.3,0.9c1.2,0.6,6.4,5.3,11.6,10.3
				c5.1,5.1,9.4,9.1,9.4,8.9c0-0.2-2.8-4.8-6.2-10.2c-4.6-7.2-6.1-10-5.8-10.9c1.7-5.3,7.7-18.2,9-19.1c1.2-0.7,3.6-1.1,10.9-1.4
				l9.4-0.4l3.7,4.8c2.1,2.6,3.8,5.1,3.8,5.6s0.4,1.1,0.8,1.3c0.4,0.2,1.5,1.5,2.5,2.7c2,2.4,2,2.9,0.4-4.7l-0.8-3.8l3.7-5.5
				c2-3,4.5-6.9,5.3-8.7c0.9-1.7,2-3.3,2.4-3.4c0.4-0.2,2,0.1,3.6,0.5c1.5,0.4,4.9,1.2,7.4,1.7c5.5,1.2,9.1,3.1,10.8,5.7
				c0.7,1.1,2.5,5.2,4,9.3c4.8,13.1,6.4,17,6.6,16.8c0.2-0.1,0.3-3.2,0.3-6.7c0-3.7,0.4-7.8,0.9-9.7c0.9-3.2,1.1-3.4,7.6-7.7
				c3.7-2.4,7.2-4.4,7.9-4.3c1.1,0.1,9,3.2,17.1,6.8c2.2,1,2.2,1,3.2,6.9c0.6,3.3,1.1,10.1,1.4,15.2c0.5,13.4,0.9,16,2.2,15.6
				c0.7-0.2,2.2,0.6,4.3,2.3c1.8,1.5,3.8,3.1,4.6,3.6c0.7,0.5,2.1,1.5,3,2.3C391.3,12258.8,393.7,12258.8,396.4,12257z
				 M470.5,12062.8c-0.4-0.6-1.9-2.8-3.2-5.1c-1.2-2.2-4.6-7.2-7.5-11.1c-5.8-8-10.5-15.6-12-19.5c-1.5-4-2.5-5-5-4.5
				c-3.7,0.6-3.8,1.1-2.6,6.4c1.6,7,1.9,7.5,7.9,14.1c6.6,7.4,21.8,21.4,22.6,20.9C471.1,12064,471,12063.3,470.5,12062.8z
				 M549.8,12056.7c11.6-9.4,19-17,22.1-23.1c0.5-0.9,1.1-3.1,1.3-4.8c0.3-2.6,0.1-3.3-1.2-4.8c-2-2.4-2.4-2-7.6,6.6
				c-3.7,6.2-11.3,17.2-17.9,25.8C541.7,12062.9,542,12063,549.8,12056.7z M493.6,12050c-0.4-2.7-1.4-7.9-2.2-11.5
				c-3.9-16.5-6.4-31.3-8.3-48c-1.4-13.4-1.7-14.6-2.8-14.6c-1.9,0-4.3,5.9-5.6,13.9c-0.9,5.8-0.9,6.4,0.1,11.8
				c1.2,6.3,4.2,15.5,11.6,36C494.1,12059.3,495.2,12061,493.6,12050z M521.5,12052.1c0-0.3,0.5-1.7,1.2-3.2c3.1-7,5-11.9,10.4-27.1
				l5.8-16.4v-7c-0.1-9.4-0.9-14.7-3-17.7c-2.8-4.2-2.5-5.2-4.8,13.5c-1.9,15-3,21.4-5,30.4c-2.5,10.8-5.8,27-5.8,27.9
				c0,0.6,0.3,0.7,0.6,0.6C521.2,12052.9,521.5,12052.4,521.5,12052.1z M425.6,12002.9c1.1-0.8,3.2-1.3,5.9-1.5
				c4.6-0.4,4.8-0.7,3.3-4.5c-0.6-1.5-0.7-1.6-3-0.7c-1.3,0.4-3.2,0.8-4.3,0.9c-3,0-4.6,1.7-5,5.2
				C422.1,12005.5,422.1,12005.5,425.6,12002.9z M590.7,12001.7c0.4-4-2-6-9-7.6l-2.5-0.6l-0.4,3.3c-0.2,1.8-0.4,3.5-0.5,3.7
				s1.5,0.8,3.6,1.2c2,0.4,4.6,1.1,5.6,1.7C589.9,12004.7,590.5,12004.4,590.7,12001.7z"/>
		</g>
		<path id="rect5205-3-6" inkscape:connector-curvature="0" class="st0" d="M2.8,70v15.8c0,5.8,4.7,10.5,10.5,10.5h73.5
			c5.8,0,10.5-4.7,10.5-10.5V70H2.8z"/>
	</g>
	<text transform="matrix(1 0 0 1 -1109.377 -173.3194)" style="fill:#EEEEEE; font-family:'Montserrat-Light'; font-size:32px;">ORD</text>
</g>
<g>
	<g>
		<path class="st2" d="M40.1,157.7h4v22h-4V157.7z M44.6,170.7c0.8,0,1.4-0.1,1.9-0.4c0.5-0.3,0.8-0.8,1-1.5c0.2-0.7,0.3-1.7,0.3-3
			c0-1.3-0.1-2.3-0.3-3c-0.2-0.7-0.5-1.1-0.9-1.3c-0.4-0.2-1-0.3-1.8-0.3h-1.6v-3.4h1.7c1.1,0,2.1,0.1,2.9,0.4
			c0.8,0.3,1.5,0.7,2.1,1.3c0.6,0.6,1,1.4,1.3,2.4c0.3,1,0.4,2.3,0.4,3.9c0,2.1-0.3,3.7-0.9,4.9s-1.4,2.1-2.4,2.6
			c-1.1,0.5-2.3,0.8-3.8,0.8h-1.5v-3.3H44.6z"/>
		<path class="st2" d="M60.8,173.6h-4.6l-3.1-15.9h4l1.2,7.5l0.7,5h1.8V173.6z M61.7,157.7h4l-2.4,14.9c-0.2,1.5-0.5,2.7-0.8,3.6
			s-0.7,1.7-1.2,2.3c-0.5,0.6-1.1,0.9-1.8,1.2c-0.7,0.2-1.5,0.3-2.5,0.3l-2-0.1v-3.2c0.9,0,1.7,0,2.2-0.1c0.6-0.1,1-0.3,1.4-0.6
			c0.3-0.3,0.6-0.9,0.8-1.7c0.2-0.8,0.4-2,0.6-3.5l0.7-5.5L61.7,157.7z"/>
		<path class="st2" d="M73.3,157.3c1.4,0,2.5,0.2,3.3,0.7c0.8,0.5,1.3,1.2,1.7,2.1c0.3,1,0.5,2.2,0.5,3.8l-0.2,5.4H75v-5.4
			c0-0.8,0-1.5-0.1-2c-0.1-0.5-0.2-0.8-0.5-1c-0.2-0.2-0.6-0.3-1.1-0.3c-0.5,0-0.8,0.1-1.1,0.3c-0.2,0.2-0.4,0.5-0.5,1
			s-0.1,1.1-0.1,2v8.8c0,1,0.1,1.7,0.3,2.2s0.6,0.9,1.1,1.1c0.5,0.2,1.1,0.3,2,0.3h3.5v3.4l-3.5,0.2c-1.8,0-3.2-0.2-4.3-0.6
			s-1.9-1.2-2.3-2.2c-0.5-1-0.7-2.5-0.7-4.4V164c0-1.5,0.2-2.8,0.5-3.8c0.3-1,0.9-1.7,1.8-2.2C70.7,157.5,71.9,157.3,73.3,157.3z"/>
		<path class="st2" d="M81.6,173.1v-8.7c0-1.5,0.2-2.8,0.6-3.8c0.4-1,1-1.8,1.9-2.4s2.1-0.8,3.5-0.8c1.5,0,2.7,0.3,3.5,0.8
			c0.9,0.6,1.5,1.3,1.9,2.4c0.4,1,0.6,2.3,0.6,3.8v8.7c0,1.5-0.2,2.8-0.6,3.8c-0.4,1-1,1.8-1.9,2.4c-0.9,0.6-2.1,0.8-3.5,0.8
			c-1.5,0-2.7-0.3-3.5-0.8c-0.9-0.5-1.5-1.3-1.9-2.4C81.8,175.8,81.6,174.6,81.6,173.1z M85.6,173.1c0,1.4,0.1,2.3,0.4,2.9
			c0.3,0.5,0.8,0.8,1.6,0.8c0.8,0,1.4-0.3,1.6-0.8c0.3-0.5,0.4-1.5,0.4-2.9v-8.7c0-1.4-0.1-2.3-0.4-2.9c-0.3-0.5-0.8-0.8-1.6-0.8
			c-0.8,0-1.3,0.3-1.6,0.8c-0.3,0.5-0.4,1.5-0.4,2.9V173.1z"/>
		<path class="st2" d="M96.3,169.5v-2.5c0-2,0.3-3.6,1-4.8c0.7-1.2,1.6-2.1,2.8-2.7c1.2-0.6,2.7-0.9,4.5-0.9c1.8,0,3.3,0.3,4.5,0.9
			s2.2,1.5,2.8,2.7s1,2.8,1,4.8v2.5c0,2-0.3,3.6-1,4.8s-1.6,2.1-2.8,2.7c-1.2,0.6-2.8,0.8-4.5,0.8c-1.8,0-3.3-0.3-4.5-0.8
			c-1.2-0.6-2.2-1.5-2.8-2.7C96.6,173,96.3,171.4,96.3,169.5z M100,169.5c0,1.4,0.2,2.5,0.5,3.3c0.3,0.7,0.8,1.2,1.5,1.5
			c0.7,0.3,1.5,0.4,2.6,0.4c1.1,0,1.9-0.1,2.6-0.4c0.7-0.3,1.2-0.8,1.5-1.5c0.3-0.7,0.5-1.8,0.5-3.3v-2.5c0-1.5-0.2-2.6-0.5-3.3
			c-0.3-0.7-0.8-1.2-1.5-1.5c-0.7-0.3-1.6-0.4-2.6-0.4c-1.1,0-1.9,0.1-2.6,0.4c-0.7,0.3-1.2,0.7-1.5,1.5c-0.3,0.7-0.5,1.8-0.5,3.3
			V169.5z M102.8,159.5v-2.7h3.6v2.7H102.8z M106.4,176.8v3.2h-3.6v-3.2H106.4z M103,175.2v-14.1h3.3v14.1H103z"/>
		<path class="st2" d="M115.9,157.7h4v22h-4V157.7z"/>
		<path class="st2" d="M124.9,157.7h3.6c0,1.1,0,2.2,0,3.4s0,2.4,0,3.6c0,1.2,0,2.4,0,3.5c0,1.1,0,2.2-0.1,3.2c0,1,0,1.9-0.1,2.6
			c-0.1,1.5-0.3,2.7-0.5,3.6c-0.3,0.9-0.8,1.5-1.4,1.8s-1.5,0.5-2.6,0.5l-1.7-0.1v-3.2c0.8,0,1.4-0.1,1.7-0.3s0.6-0.6,0.8-1.1
			c0.1-0.5,0.2-1.3,0.3-2.4c0-0.5,0.1-1.2,0.1-2c0-0.8,0-1.6,0-2.6c0-0.9,0-1.9,0-2.9c0-1,0-1.9,0-2.9c0-1,0-1.8,0-2.6
			S124.9,158.3,124.9,157.7z M125.9,157.7h7.6v3.6h-7.6V157.7z M131.5,157.7h3.9v22h-3.9V157.7z"/>
		<path class="st2" d="M139.1,157.7h4v22h-4V157.7z"/>
		<path class="st2" d="M149.4,171.6h3.8l-3.2,8.1h-4.2L149.4,171.6z M153.6,169.8h1.5v3.3h-1.7c-1.6,0-2.9-0.3-4-0.8
			s-1.9-1.4-2.5-2.6s-0.8-2.8-0.8-4.7c0-1.5,0.2-2.7,0.5-3.7s0.8-1.7,1.5-2.2s1.4-0.9,2.3-1.1c0.9-0.2,1.9-0.3,3-0.3h1.7v3.4h-1.8
			c-0.8,0-1.5,0.1-1.9,0.3c-0.4,0.2-0.8,0.6-0.9,1.2c-0.2,0.6-0.3,1.4-0.3,2.5c0,1.2,0.1,2.1,0.3,2.8c0.2,0.7,0.5,1.1,1,1.4
			C152,169.6,152.7,169.8,153.6,169.8z M157.9,157.7v22H154v-22H157.9z"/>
	</g>
</g>
</svg>
