<?xml version="1.0" encoding="utf-8"?>
<!-- Generator: Adobe Illustrator 28.3.0, SVG Export Plug-In . SVG Version: 6.00 Build 0)  -->
<svg version="1.1"
	 id="svg8" xmlns:rdf="http://www.w3.org/1999/02/22-rdf-syntax-ns#" xmlns:svg="http://www.w3.org/2000/svg" xmlns:sodipodi="http://sodipodi.sourceforge.net/DTD/sodipodi-0.dtd" xmlns:dc="http://purl.org/dc/elements/1.1/" xmlns:inkscape="http://www.inkscape.org/namespaces/inkscape" xmlns:cc="http://creativecommons.org/ns#" sodipodi:docname="authority.svg"
	 xmlns="http://www.w3.org/2000/svg" xmlns:xlink="http://www.w3.org/1999/xlink" x="0px" y="0px" viewBox="0 0 200 200"
	 style="enable-background:new 0 0 200 200;" xml:space="preserve">
<style type="text/css">
	.st0{fill:#222222;}
	.st1{fill:#CB4242;}
	.st2{fill:#FFFFFF;}
</style>
<defs>
	
		<inkscape:path-effect  bendpath1="m -199.08406,108.42369 h 7.0057" bendpath2="m -192.07836,108.42369 v 6.75242" bendpath3="m -199.08406,115.17611 h 7.0057" bendpath4="m -199.08406,108.42369 v 6.75242" effect="envelope" id="path-effect4658" is_visible="true" xx="true" yy="true">
		</inkscape:path-effect>
	
		<inkscape:path-effect  bendpath="m -192.00142,114.60623 c 2.12577,-0.53066 4.48261,0.85111 7.0057,0" bendpath-nodetypes="cc" effect="bend_path" id="path-effect4656" is_visible="true" prop_scale="1" scale_y_rel="false" vertical="false">
		</inkscape:path-effect>
	<inkscape:path-effect  effect="bounding_box" id="path-effect4654" is_visible="true" linkedpath="" visualbounds="false">
		</inkscape:path-effect>
</defs>
<sodipodi:namedview  bordercolor="#666666" borderopacity="1.0" fit-margin-bottom="0" fit-margin-left="0" fit-margin-right="0" fit-margin-top="0" id="base" inkscape:current-layer="layer1" inkscape:cx="616.35575" inkscape:cy="150.46772" inkscape:document-units="px" inkscape:object-nodes="true" inkscape:pageopacity="0.0" inkscape:pageshadow="2" inkscape:snap-page="true" inkscape:window-height="1016" inkscape:window-maximized="1" inkscape:window-width="1920" inkscape:window-x="0" inkscape:window-y="27" inkscape:zoom="0.5" pagecolor="#ffffff" showgrid="false" showguides="false" units="px">
	</sodipodi:namedview>
<g id="layer1" transform="translate(98.048812,-95.14345)" inkscape:groupmode="layer" inkscape:label="Layer 1">
	<g id="g5175" transform="matrix(2,0,0,2,-98.048812,95.143449)">
		<path id="rect5163" class="st0" d="M7.5,0h85c4.1,0,7.5,3.4,7.5,7.5v85c0,4.1-3.4,7.5-7.5,7.5h-85C3.4,100,0,96.6,0,92.5v-85
			C0,3.4,3.4,0,7.5,0z"/>
		<path id="rect5165" class="st1" d="M10,5h80c2.8,0,5,2.2,5,5v80c0,2.8-2.2,5-5,5H10c-2.8,0-5-2.2-5-5V10C5,7.2,7.2,5,10,5z"/>
		<path id="rect5205-3-6" inkscape:connector-curvature="0" class="st0" d="M2.8,70v15.8c0,5.8,4.7,10.5,10.5,10.5h73.5
			c5.8,0,10.5-4.7,10.5-10.5V70H2.8z"/>
	</g>
	<text transform="matrix(1 0 0 1 -1109.377 -173.3194)" style="fill:#EEEEEE; font-family:'Montserrat-Light'; font-size:32px;">ORD</text>
</g>
<g>
	<g>
		<path class="st2" d="M40.1,157.7h4v22h-4V157.7z M44.6,170.7c0.8,0,1.4-0.1,1.9-0.4c0.5-0.3,0.8-0.8,1-1.5s0.3-1.7,0.3-3
			s-0.1-2.3-0.3-3s-0.5-1.1-0.9-1.3s-1-0.3-1.8-0.3h-1.6v-3.4h1.7c1.1,0,2.1,0.1,2.9,0.4c0.8,0.3,1.5,0.7,2.1,1.3s1,1.4,1.3,2.4
			s0.4,2.3,0.4,3.9c0,2.1-0.3,3.7-0.9,4.9s-1.4,2.1-2.4,2.6c-1.1,0.5-2.3,0.8-3.8,0.8H43v-3.3L44.6,170.7L44.6,170.7z"/>
		<path class="st2" d="M60.8,173.6h-4.6l-3.1-15.9h4l1.2,7.5l0.7,5h1.8C60.8,170.2,60.8,173.6,60.8,173.6z M61.7,157.7h4l-2.4,14.9
			c-0.2,1.5-0.5,2.7-0.8,3.6s-0.7,1.7-1.2,2.3s-1.1,0.9-1.8,1.2c-0.7,0.2-1.5,0.3-2.5,0.3l-2-0.1v-3.2c0.9,0,1.7,0,2.2-0.1
			c0.6-0.1,1-0.3,1.4-0.6c0.3-0.3,0.6-0.9,0.8-1.7s0.4-2,0.6-3.5l0.7-5.5L61.7,157.7z"/>
		<path class="st2" d="M73.3,157.3c1.4,0,2.5,0.2,3.3,0.7s1.3,1.2,1.7,2.1c0.3,1,0.5,2.2,0.5,3.8l-0.2,5.4H75v-5.4
			c0-0.8,0-1.5-0.1-2s-0.2-0.8-0.5-1c-0.2-0.2-0.6-0.3-1.1-0.3s-0.8,0.1-1.1,0.3c-0.2,0.2-0.4,0.5-0.5,1s-0.1,1.1-0.1,2v8.8
			c0,1,0.1,1.7,0.3,2.2s0.6,0.9,1.1,1.1c0.5,0.2,1.1,0.3,2,0.3h3.5v3.4l-3.5,0.2c-1.8,0-3.2-0.2-4.3-0.6s-1.9-1.2-2.3-2.2
			c-0.5-1-0.7-2.5-0.7-4.4V164c0-1.5,0.2-2.8,0.5-3.8s0.9-1.7,1.8-2.2C70.7,157.5,71.9,157.3,73.3,157.3z"/>
		<path class="st2" d="M81.6,173.1v-8.7c0-1.5,0.2-2.8,0.6-3.8s1-1.8,1.9-2.4s2.1-0.8,3.5-0.8c1.5,0,2.7,0.3,3.5,0.8
			c0.9,0.6,1.5,1.3,1.9,2.4c0.4,1,0.6,2.3,0.6,3.8v8.7c0,1.5-0.2,2.8-0.6,3.8s-1,1.8-1.9,2.4c-0.9,0.6-2.1,0.8-3.5,0.8
			c-1.5,0-2.7-0.3-3.5-0.8c-0.9-0.5-1.5-1.3-1.9-2.4C81.8,175.8,81.6,174.6,81.6,173.1z M85.6,173.1c0,1.4,0.1,2.3,0.4,2.9
			c0.3,0.5,0.8,0.8,1.6,0.8c0.8,0,1.4-0.3,1.6-0.8c0.3-0.5,0.4-1.5,0.4-2.9v-8.7c0-1.4-0.1-2.3-0.4-2.9c-0.3-0.5-0.8-0.8-1.6-0.8
			c-0.8,0-1.3,0.3-1.6,0.8c-0.3,0.5-0.4,1.5-0.4,2.9V173.1z"/>
		<path class="st2" d="M96.3,169.5V167c0-2,0.3-3.6,1-4.8s1.6-2.1,2.8-2.7c1.2-0.6,2.7-0.9,4.5-0.9s3.3,0.3,4.5,0.9s2.2,1.5,2.8,2.7
			s1,2.8,1,4.8v2.5c0,2-0.3,3.6-1,4.8s-1.6,2.1-2.8,2.7c-1.2,0.6-2.8,0.8-4.5,0.8c-1.8,0-3.3-0.3-4.5-0.8c-1.2-0.6-2.2-1.5-2.8-2.7
			C96.6,173,96.3,171.4,96.3,169.5z M100,169.5c0,1.4,0.2,2.5,0.5,3.3c0.3,0.7,0.8,1.2,1.5,1.5s1.5,0.4,2.6,0.4s1.9-0.1,2.6-0.4
			c0.7-0.3,1.2-0.8,1.5-1.5s0.5-1.8,0.5-3.3V167c0-1.5-0.2-2.6-0.5-3.3s-0.8-1.2-1.5-1.5s-1.6-0.4-2.6-0.4c-1.1,0-1.9,0.1-2.6,0.4
			c-0.7,0.3-1.2,0.7-1.5,1.5c-0.3,0.7-0.5,1.8-0.5,3.3V169.5z M102.8,159.5v-2.7h3.6v2.7H102.8z M106.4,176.8v3.2h-3.6v-3.2H106.4z
			 M103,175.2v-14.1h3.3v14.1H103z"/>
		<path class="st2" d="M115.9,157.7h4v22h-4V157.7z"/>
		<path class="st2" d="M124.9,157.7h3.6c0,1.1,0,2.2,0,3.4s0,2.4,0,3.6c0,1.2,0,2.4,0,3.5s0,2.2-0.1,3.2c0,1,0,1.9-0.1,2.6
			c-0.1,1.5-0.3,2.7-0.5,3.6c-0.3,0.9-0.8,1.5-1.4,1.8s-1.5,0.5-2.6,0.5l-1.7-0.1v-3.2c0.8,0,1.4-0.1,1.7-0.3s0.6-0.6,0.8-1.1
			c0.1-0.5,0.2-1.3,0.3-2.4c0-0.5,0.1-1.2,0.1-2s0-1.6,0-2.6c0-0.9,0-1.9,0-2.9s0-1.9,0-2.9s0-1.8,0-2.6S124.9,158.3,124.9,157.7z
			 M125.9,157.7h7.6v3.6h-7.6V157.7z M131.5,157.7h3.9v22h-3.9V157.7z"/>
		<path class="st2" d="M139.1,157.7h4v22h-4V157.7z"/>
		<path class="st2" d="M149.4,171.6h3.8l-3.2,8.1h-4.2L149.4,171.6z M153.6,169.8h1.5v3.3h-1.7c-1.6,0-2.9-0.3-4-0.8
			s-1.9-1.4-2.5-2.6s-0.8-2.8-0.8-4.7c0-1.5,0.2-2.7,0.5-3.7s0.8-1.7,1.5-2.2s1.4-0.9,2.3-1.1c0.9-0.2,1.9-0.3,3-0.3h1.7v3.4h-1.8
			c-0.8,0-1.5,0.1-1.9,0.3s-0.8,0.6-0.9,1.2c-0.2,0.6-0.3,1.4-0.3,2.5c0,1.2,0.1,2.1,0.3,2.8s0.5,1.1,1,1.4
			C152,169.6,152.7,169.8,153.6,169.8z M157.9,157.7v22H154v-22H157.9z"/>
	</g>
</g>
<g transform="translate(0.000000,1280.000000) scale(0.100000,-0.100000)">
	<path class="st0" d="M973,12582.4c0.1-8,0.4-9.4,4.4-16.3c3.8-6.8,7.7-10.7,39.5-38.6c96.7-85.2,137.8-124.4,171.9-164.7
		c37.7-44.3,58.9-75.4,79.9-117.3c32.5-65,48.5-140.4,46.1-217.8c-2.1-72.4-18.4-126.8-50.7-169.4c-8.8-11.6-17.5-20.6-19.3-20.1
		c-2.7,1.1-385.2,386.2-384.9,387.6c0.2,0.9,33,34.7,73.1,75.1c71.1,71.9,72.6,73.5,73.3,78.5c0.4,2.8,0.3,5.2-0.2,5.2
		c-0.6,0-64.3,10.7-141.7,23.6l-140.8,23.5l-55-54.3c-30.3-29.8-90.4-89.3-133.6-132.2l-78.5-78l83-83.1
		c81.4-81.5,83.1-83.1,87.3-83.1c4,0,5.4,1,19.7,14.9c8.5,8.1,35.2,33.9,59.4,57.2c31.5,30.4,44.4,42.2,45.6,41.5
		c1.2-0.8,100.2-100.4,343.3-345.5c15.4-15.6,27.7-28.7,27.3-29.4c-1.7-2.8-43.9-19.4-64.7-25.5c-31.8-9.2-54.9-12.3-84.3-11.4
		c-41.1,1.2-78,10.9-118.6,31.2c-30.4,15.1-53.2,31.6-76.5,55.5c-14.7,15.1-21.3,23.3-34.1,41.9l-9,13l-30.6,0.3
		c-29.4,0.2-30.7,0.1-35.2-2.1c-2.7-1.3-17.4-14.6-33.4-30c-15.7-15.1-31.2-30-34.3-33l-5.6-5.4l-13.5,13.2
		c-16.3,16.3-24.1,20.8-36.4,20.8c-15.8-0.1-38.7-14.1-47.2-28.8c-2.5-4.5-3.3-7.1-3.3-12c0-12.6,6.2-23.2,22.7-39.5
		c6.2-6.1,10.9-11.7,10.7-12.5c-0.3-0.7-10.1-7.7-21.9-15.5c-43-28.7-75.6-55.2-116-94.1c-27.9-27.2-31.2-31.3-35.7-47.5
		c-1.9-7-2.5-11.8-2.5-23c0.1-21.9,4.9-36.7,16.8-51.5c11-13.8,22.2-21.8,36.4-26.3c6.7-2.1,10.8-2.6,22.8-2.6
		c13.1,0,15.5,0.3,24,3.3c17.8,6.1,23,10,50.2,37c35.1,35.1,76.6,86.1,102,125.1c4,6.3,7.6,11.3,7.9,11.3c0.3,0,5.5-4.9,11.6-11.1
		c13.6-13.7,22-18.4,34.6-19c18.2-1,29.2,7.3,41.5,30.9c3.8,7.3,4.9,10.5,4.9,14.8c0,11.3-6.4,22.1-24,40.3
		c-6.3,6.4-11.2,12.2-11,12.9c0.4,2,5.7,6.4,7.5,6.4c0.9,0,2.9-2.4,4.6-5.4c30.3-53.3,71.7-94.5,124.8-124.1
		c41.3-23.1,94.4-41.1,143.3-48.5c48.4-7.3,111.7-6.6,163.3,1.8c51.6,8.4,106.8,27.5,147.4,50.9c6.1,3.5,11.7,6.3,12.6,6.3
		c1,0,38-35.7,82.5-79.3c44.3-43.8,85.3-83.6,90.9-88.5c16.4-14.8,28.5-20.1,45.9-20c8.8,0,12.2,0.6,19,3
		c11.8,4.3,22.8,11.6,34.9,22.9c12.5,11.7,20,22.7,24.3,35.5c2.7,7.9,3.1,10.9,3,21c0,13.5-1.8,21-8.1,33.1
		c-3.6,7.2-11.2,15.1-89.7,93.7c-47.1,47.2-85.6,86.3-85.6,86.9c0,0.4,4.7,6.1,10.4,12.2c24.9,27.4,40.6,50.5,56.3,82.9
		c22.4,46.6,36,98.6,43.4,167.5c2,18.3,2,98,0,118.4c-2.9,30.4-4.9,44.7-8.2,60c-8.9,41.5-21.3,77.1-40.8,116.7
		c-46.2,93.6-116.7,172.2-210.4,234.6c-61.8,41.3-125.3,69.8-200.3,90.2c-14.7,3.9-59.1,12.3-65.6,12.3
		C973.2,12591,973,12590.3,973,12582.4z"/>
</g>
</svg>
